<?xml version="1.0" encoding="iso-8859-1"?>
<!-- Generator: Adobe Illustrator 19.2.1, SVG Export Plug-In . SVG Version: 6.00 Build 0)  -->
<svg version="1.1" id="Layer_1" xmlns="http://www.w3.org/2000/svg" xmlns:xlink="http://www.w3.org/1999/xlink" x="0px" y="0px"
	 viewBox="0 0 200 200" style="enable-background:new 0 0 200 200;" xml:space="preserve">
<style type="text/css">
	.st0{fill:none;stroke:#5F7C87;stroke-width:1.7432;stroke-linecap:round;stroke-linejoin:round;stroke-miterlimit:10;}
	.st1{fill:none;stroke:#678C9C;stroke-width:1.5;stroke-miterlimit:10;}
	.st2{fill:none;stroke:#729EB0;stroke-linecap:round;stroke-miterlimit:10;}
	.st3{fill:#5ECC81;stroke:#5ECC81;stroke-width:2;stroke-miterlimit:10;}
	.st4{fill:none;stroke:#2B8258;stroke-width:1.7038;stroke-linecap:round;stroke-linejoin:round;stroke-miterlimit:10;}
</style>
<g id="mesh_x60_57x41">
	<polygon class="st0" points="4.872,35.772 14.872,29.472 43.372,29.472 43.372,21.872 14.872,21.872 4.872,28.172 	"/>
	<polygon class="st0" points="54.172,39.572 44.172,33.272 14.272,33.272 14.272,25.672 44.172,25.672 54.172,31.972 	"/>
	<polygon class="st0" points="52.372,4.672 42.372,10.972 13.972,10.972 13.972,18.472 42.372,18.472 52.372,12.172 	"/>
	<polygon class="st0" points="3.172,0.872 13.072,7.172 42.972,7.172 42.972,14.672 13.072,14.672 3.172,8.372 	"/>
	<line class="st0" x1="20.072" y1="7.172" x2="20.072" y2="25.672"/>
	<line class="st0" x1="35.872" y1="10.972" x2="35.872" y2="33.272"/>
	<line class="st0" x1="23.172" y1="10.972" x2="23.172" y2="29.472"/>
	<line class="st0" x1="39.072" y1="14.672" x2="39.072" y2="33.272"/>
	<line class="st0" x1="29.672" y1="14.672" x2="29.672" y2="29.472"/>
	<line class="st0" x1="46.672" y1="11.972" x2="54.672" y2="6.972"/>
	<line class="st0" x1="2.372" y1="33.472" x2="9.772" y2="28.872"/>
	<line class="st0" x1="47.672" y1="31.972" x2="55.972" y2="37.172"/>
	<line class="st0" x1="0.872" y1="3.272" x2="8.772" y2="8.272"/>
</g>
<g id="logger_x60_59x34">
	<polygon class="st0" points="23.472,32.972 15.872,14.472 25.172,0.872 32.872,19.372 	"/>
	<polygon class="st0" points="18.472,32.972 10.872,14.472 20.172,0.872 27.872,19.372 	"/>
	<polygon class="st0" points="13.472,32.972 5.872,14.472 15.172,0.872 22.872,19.372 	"/>
	<polygon class="st0" points="8.572,32.972 0.872,14.472 10.272,0.872 17.872,19.372 	"/>
	<polygon class="st0" points="48.472,32.972 40.872,14.472 50.172,0.872 57.872,19.372 	"/>
	<polygon class="st0" points="43.572,32.972 35.872,14.472 45.272,0.872 52.872,19.372 	"/>
	<polygon class="st0" points="38.572,32.972 30.872,14.472 40.272,0.872 47.872,19.372 	"/>
	<polygon class="st0" points="33.572,32.972 25.872,14.472 35.272,0.872 42.872,19.372 	"/>
</g>
<g id="monitor_x60_41x38">
	<polygon class="st0" points="1.072,6.672 9.872,0.872 28.772,13.472 19.972,19.272 	"/>
	<polygon class="st0" points="1.072,12.472 9.872,6.672 28.772,19.272 19.972,25.072 	"/>
	<polygon class="st0" points="1.072,18.372 9.872,12.472 28.772,25.072 19.972,30.872 	"/>
	<polygon class="st0" points="38.872,6.672 30.072,0.872 11.172,13.472 19.972,19.272 	"/>
	<polygon class="st0" points="38.872,12.472 30.072,6.672 11.172,19.272 19.972,25.072 	"/>
	<polygon class="st0" points="38.872,18.372 30.072,12.472 11.172,25.072 19.972,30.872 	"/>
	<polygon class="st0" points="1.072,24.172 9.872,18.372 28.772,30.872 19.972,36.772 	"/>
	<polygon class="st0" points="38.872,24.172 30.072,18.372 11.172,30.872 19.972,36.772 	"/>
	<line class="st0" x1="30.172" y1="12.472" x2="30.172" y2="0.872"/>
	<line class="st0" x1="39.372" y1="24.172" x2="39.372" y2="6.872"/>
	<line class="st0" x1="0.872" y1="24.172" x2="0.872" y2="6.872"/>
	<line class="st0" x1="9.972" y1="12.472" x2="9.972" y2="0.872"/>
</g>
<g id="warehouse_x60_51x29">
	
		<rect x="15.915" y="4.807" transform="matrix(0.7071 -0.7071 0.7071 0.7071 -2.6723 22.1614)" class="st0" width="19" height="19"/>
	
		<rect x="19.708" y="8.618" transform="matrix(0.7071 -0.7071 0.7071 0.7071 -2.6824 22.1601)" class="st0" width="11.4" height="11.4"/>
	
		<rect x="26.215" y="6.479" transform="matrix(0.707 -0.7072 0.7072 0.707 -0.1319 28.2393)" class="st0" width="15.6" height="15.6"/>
	
		<rect x="9.295" y="6.537" transform="matrix(0.7072 -0.707 0.707 0.7072 -5.1309 16.2843)" class="st0" width="15.6" height="15.6"/>
	
		<rect x="39.728" y="10.102" transform="matrix(0.707 -0.7072 0.7072 0.707 2.7565 35.2566)" class="st0" width="8.4" height="8.4"/>
	<rect x="2.611" y="10.118" transform="matrix(0.7071 -0.7071 0.7071 0.7071 -8.1296 9.01)" class="st0" width="8.4" height="8.4"/>
</g>
<g id="pusher_x60_69x32">
	<polyline class="st0" points="11.372,6.972 34.272,21.472 44.772,14.972 	"/>
	<polyline class="st0" points="44.772,21.072 34.272,27.572 11.372,13.072 11.372,0.872 34.272,15.372 44.772,8.872 	"/>
	<line class="st0" x1="6.872" y1="10.272" x2="29.872" y2="24.772"/>
	<polygon class="st0" points="6.872,4.172 29.872,18.672 29.872,30.872 6.872,16.372 	"/>
	<line class="st0" x1="44.772" y1="8.572" x2="67.672" y2="23.172"/>
	<polyline class="st0" points="44.772,14.672 67.672,29.272 67.672,17.072 44.772,2.572 44.872,8.772 34.472,2.172 11.472,16.672 
		11.472,28.872 34.472,14.372 44.872,20.972 	"/>
	<polyline class="st0" points="57.172,22.772 34.172,8.272 23.772,14.872 	"/>
	<polyline class="st0" points="23.772,8.772 34.172,2.172 57.172,16.672 57.172,28.872 34.172,14.372 23.772,20.972 	"/>
	<polyline class="st0" points="57.272,6.972 34.272,21.472 23.872,14.972 	"/>
	<polyline class="st0" points="23.872,21.072 34.272,27.572 57.272,13.072 57.272,0.872 34.272,15.372 23.872,8.872 	"/>
	<line class="st0" x1="61.772" y1="10.272" x2="38.772" y2="24.772"/>
	<polygon class="st0" points="61.772,4.172 38.772,18.672 38.772,30.872 61.772,16.372 	"/>
	<polyline class="st0" points="23.872,14.672 0.872,29.272 0.872,17.072 23.872,2.572 23.872,8.572 0.872,23.172 	"/>
	<polyline class="st0" points="11.472,22.772 34.472,8.272 44.872,14.872 	"/>
</g>
<g id="admin_x60_19x15">
	<ellipse transform="matrix(0.9413 -0.3375 0.3375 0.9413 -3.2044 3.2912)" class="st1" cx="7.863" cy="10.861" rx="2.4" ry="2.4"/>
	<ellipse transform="matrix(0.9412 -0.3377 0.3377 0.9412 -0.4447 3.7448)" class="st1" cx="10.54" cy="3.151" rx="2.4" ry="2.4"/>
	<ellipse transform="matrix(0.9413 -0.3376 0.3376 0.9413 -1.37 5.8338)" class="st1" cx="16.088" cy="6.856" rx="1.5" ry="1.5"/>
	<line class="st1" x1="8.68" y1="8.656" x2="9.88" y2="5.356"/>
	<line class="st1" x1="14.98" y1="5.856" x2="12.78" y2="4.456"/>
	<ellipse transform="matrix(0.8869 -0.4619 0.4619 0.8869 -3.1443 1.8714)" class="st1" cx="2.25" cy="7.358" rx="1.5" ry="1.5"/>
	<line class="st1" x1="3.48" y1="8.156" x2="5.88" y2="9.256"/>
</g>
<g id="back-arrow_x60_16x12">
	<polyline class="st2" points="5.907,10.9 0.707,5.7 5.907,0.5 	"/>
	<line class="st2" x1="0.707" y1="5.7" x2="14.907" y2="5.7"/>
</g>
<g id="hex-warehouse_x60_49x57">
	<polygon id="_x3E_bg_3_" class="st3" points="47.5,41.454 24.2,54.854 1,41.454 1,14.554 24.2,1.154 47.5,14.554 	"/>
	
		<rect x="15.678" y="19.515" transform="matrix(0.7071 -0.7071 0.7071 0.7071 -12.7902 25.4514)" class="st4" width="17.3" height="17.3"/>
	
		<rect x="19.118" y="23.034" transform="matrix(0.7071 -0.7071 0.7071 0.7071 -12.842 25.4654)" class="st4" width="10.4" height="10.4"/>
	
		<rect x="25.051" y="21.001" transform="matrix(0.707 -0.7072 0.7072 0.707 -10.4528 30.9706)" class="st4" width="14.2" height="14.2"/>
	
		<rect x="9.689" y="21.098" transform="matrix(0.7072 -0.707 0.707 0.7072 -15.0205 20.1263)" class="st4" width="14.2" height="14.2"/>
	<rect x="37.34" y="24.316" transform="matrix(0.707 -0.7072 0.7072 0.707 -7.83 37.3323)" class="st4" width="7.6" height="7.6"/>
	
		<rect x="3.545" y="24.357" transform="matrix(0.7071 -0.7071 0.7071 0.7071 -17.7589 13.4408)" class="st4" width="7.6" height="7.6"/>
</g>
<g id="hex-mesh_x60_49x57">
	<polygon id="_x3E_bg_4_" class="st3" points="47.5,41.454 24.2,54.854 1,41.454 1,14.554 24.2,1.154 47.5,14.554 	"/>
	<polygon class="st4" points="6.968,39.922 12.368,36.622 37.168,36.622 37.168,30.022 12.368,30.022 6.968,33.322 	"/>
	<polygon class="st4" points="42.068,42.722 37.868,39.922 11.868,39.922 11.868,33.322 37.868,33.322 42.068,36.122 	"/>
	<polygon class="st4" points="42.968,16.022 36.268,20.522 11.568,20.522 11.568,27.122 36.268,27.122 42.968,22.522 	"/>
	<polygon class="st4" points="5.968,14.022 10.868,17.222 36.768,17.222 36.768,23.822 10.868,23.822 5.968,20.522 	"/>
	<line class="st4" x1="16.868" y1="17.222" x2="16.868" y2="33.322"/>
	<line class="st4" x1="30.668" y1="20.522" x2="30.668" y2="39.922"/>
	<line class="st4" x1="19.568" y1="20.522" x2="19.568" y2="36.622"/>
	<line class="st4" x1="33.368" y1="23.822" x2="33.368" y2="39.922"/>
	<line class="st4" x1="25.268" y1="23.822" x2="25.268" y2="36.622"/>
	<line class="st4" x1="37.968" y1="22.322" x2="44.968" y2="18.022"/>
	<line class="st4" x1="4.768" y1="37.922" x2="8.968" y2="35.322"/>
	<line class="st4" x1="39.168" y1="37.822" x2="42.468" y2="39.922"/>
	<line class="st4" x1="4.868" y1="16.622" x2="9.268" y2="19.622"/>
</g>
<g id="hex-monitor_x60_49x57">
	<polygon id="_x3E_bg_5_" class="st3" points="47.5,41.454 24.2,54.854 1,41.454 1,14.554 24.2,1.154 47.5,14.554 	"/>
	<polygon class="st4" points="6.768,19.122 14.868,13.822 32.168,25.322 24.068,30.622 	"/>
	<polygon class="st4" points="6.768,24.422 14.868,19.122 32.168,30.622 24.068,36.022 	"/>
	<polygon class="st4" points="6.768,29.822 14.868,24.422 32.168,36.022 24.068,41.322 	"/>
	<polygon class="st4" points="41.368,19.122 33.368,13.822 16.068,25.322 24.068,30.622 	"/>
	<line class="st4" x1="41.368" y1="34.922" x2="41.368" y2="19.122"/>
	<polygon class="st4" points="41.368,24.422 33.368,19.122 16.068,30.622 24.068,36.022 	"/>
	<polygon class="st4" points="41.368,29.822 33.368,24.422 16.068,36.022 24.068,41.322 	"/>
	<polygon class="st4" points="6.768,35.122 14.868,29.822 32.168,41.322 24.068,46.722 	"/>
	<polygon class="st4" points="41.368,35.122 33.368,29.822 16.068,41.322 24.068,46.722 	"/>
	<line class="st4" x1="33.468" y1="24.422" x2="33.468" y2="13.822"/>
	<line class="st4" x1="6.568" y1="35.122" x2="6.568" y2="19.322"/>
	<line class="st4" x1="14.968" y1="24.422" x2="14.968" y2="13.822"/>
</g>
<g id="hex-logger_x60_49x57">
	<polygon id="_x3E_bg_6_" class="st3" points="47.5,41.454 24.2,54.854 1,41.454 1,14.554 24.2,1.154 47.5,14.554 	"/>
	<polygon class="st4" points="14.909,37.622 15.009,22.122 26.509,15.722 26.409,31.222 	"/>
	<polygon class="st4" points="11.109,36.022 11.209,20.522 22.609,14.122 22.609,29.622 	"/>
	<polygon class="st4" points="7.309,34.422 7.409,18.922 18.809,12.522 18.809,28.022 	"/>
	<polygon class="st4" points="3.609,32.822 3.609,17.322 15.109,10.922 15.009,26.422 	"/>
	<polygon class="st4" points="33.909,45.622 34.109,30.022 45.509,23.722 45.409,39.222 	"/>
	<polygon class="st4" points="30.209,44.022 30.309,28.422 41.809,22.122 41.609,37.622 	"/>
	<polygon class="st4" points="26.409,42.422 26.409,26.822 37.909,20.522 37.809,36.022 	"/>
	<polygon class="st4" points="22.609,40.822 22.609,25.222 34.109,18.922 34.009,34.422 	"/>
</g>
<g id="hex-pusher_x60_49x57">
	<polygon id="_x3E_bg_7_" class="st3" points="47.5,41.454 24.2,54.854 1,41.454 1,14.554 24.2,1.154 47.5,14.554 	"/>
	<path class="st4" d="M41.609,28.622"/>
	<line class="st4" x1="44.809" y1="36.722" x2="24.009" y2="23.622"/>
	<line class="st4" x1="43.309" y1="41.322" x2="24.009" y2="29.122"/>
	<polyline class="st4" points="24.009,18.122 44.809,31.222 44.809,33.822 44.809,40.622 	"/>
	<line class="st4" x1="44.809" y1="31.222" x2="28.109" y2="20.622"/>
	<polyline class="st4" points="44.809,36.722 28.109,26.122 28.109,15.122 44.709,25.622 	"/>
	<polyline class="st4" points="23.909,41.122 44.709,27.922 44.709,16.922 23.909,30.022 	"/>
	<line class="st4" x1="24.109" y1="35.622" x2="33.609" y2="29.622"/>
	<line class="st4" x1="24.109" y1="30.022" x2="33.609" y2="24.122"/>
	<line class="st4" x1="33.609" y1="35.122" x2="24.109" y2="41.122"/>
	<line class="st4" x1="24.009" y1="23.622" x2="33.509" y2="29.622"/>
	<line class="st4" x1="24.009" y1="29.122" x2="33.509" y2="35.122"/>
	<line class="st4" x1="33.509" y1="24.022" x2="24.009" y2="18.122"/>
	<line class="st4" x1="44.709" y1="22.422" x2="23.909" y2="35.622"/>
	<line class="st4" x1="33.509" y1="29.722" x2="44.709" y2="22.622"/>
	<polyline class="st4" points="44.809,33.622 33.509,40.822 33.509,35.322 44.709,28.222 	"/>
	<path class="st4" d="M44.809,33.822"/>
	<path class="st4" d="M6.109,28.622"/>
	<line class="st4" x1="2.909" y1="36.722" x2="23.709" y2="23.622"/>
	<line class="st4" x1="4.509" y1="41.322" x2="23.709" y2="29.122"/>
	<polyline class="st4" points="23.709,18.122 2.909,31.222 2.909,33.822 2.909,40.622 	"/>
	<line class="st4" x1="2.909" y1="31.222" x2="19.709" y2="20.622"/>
	<polyline class="st4" points="2.909,36.722 19.709,26.122 19.709,15.122 3.009,25.622 	"/>
	<polyline class="st4" points="23.909,41.122 3.009,27.922 3.009,16.922 23.909,30.022 	"/>
	<line class="st4" x1="23.609" y1="35.622" x2="14.209" y2="29.622"/>
	<line class="st4" x1="23.609" y1="30.022" x2="14.209" y2="24.122"/>
	<line class="st4" x1="14.209" y1="35.122" x2="23.609" y2="41.122"/>
	<line class="st4" x1="23.709" y1="23.622" x2="14.309" y2="29.622"/>
	<line class="st4" x1="23.709" y1="29.122" x2="14.309" y2="35.122"/>
	<line class="st4" x1="14.309" y1="24.022" x2="23.709" y2="18.122"/>
	<line class="st4" x1="3.009" y1="22.422" x2="23.909" y2="35.622"/>
	<line class="st4" x1="14.309" y1="29.722" x2="3.009" y2="22.622"/>
	<polyline class="st4" points="2.909,33.622 14.309,40.822 14.309,35.322 3.009,28.222 	"/>
	<path class="st4" d="M2.909,33.822"/>
	<path class="st4" d="M2.909,33.822"/>
</g>
</svg>
