<?xml version="1.0" encoding="iso-8859-1"?>
<!-- Generator: Adobe Illustrator 20.0.0, SVG Export Plug-In . SVG Version: 6.00 Build 0)  -->
<svg version="1.1" id="Layer_1" xmlns="http://www.w3.org/2000/svg" xmlns:xlink="http://www.w3.org/1999/xlink" x="0px" y="0px"
	 viewBox="0 0 200 200" style="enable-background:new 0 0 200 200;" xml:space="preserve">
<style type="text/css">
	.st0{fill:none;stroke:#5F7C87;stroke-width:1.7432;stroke-linecap:round;stroke-linejoin:round;stroke-miterlimit:10;}
	.st1{fill:none;stroke:#678C9C;stroke-width:1.5;stroke-miterlimit:10;}
	.st2{fill:none;stroke:#729EB0;stroke-linecap:round;stroke-miterlimit:10;}
	.st3{fill:#5ECC81;}
	.st4{fill:none;stroke:#2B8258;stroke-width:1.7038;stroke-linecap:round;stroke-linejoin:round;stroke-miterlimit:10;}
</style>
<g id="mesh_x60_57x41">
	<polygon class="st0" points="4.872,35.772 14.872,29.472 43.372,29.472 43.372,21.872 14.872,21.872 4.872,28.172 	"/>
	<polygon class="st0" points="54.172,39.572 44.172,33.272 14.272,33.272 14.272,25.672 44.172,25.672 54.172,31.972 	"/>
	<polygon class="st0" points="52.372,4.672 42.372,10.972 13.972,10.972 13.972,18.472 42.372,18.472 52.372,12.172 	"/>
	<polygon class="st0" points="3.172,0.872 13.072,7.172 42.972,7.172 42.972,14.672 13.072,14.672 3.172,8.372 	"/>
	<line class="st0" x1="20.072" y1="7.172" x2="20.072" y2="25.672"/>
	<line class="st0" x1="35.872" y1="10.972" x2="35.872" y2="33.272"/>
	<line class="st0" x1="23.172" y1="10.972" x2="23.172" y2="29.472"/>
	<line class="st0" x1="39.072" y1="14.672" x2="39.072" y2="33.272"/>
	<line class="st0" x1="29.672" y1="14.672" x2="29.672" y2="29.472"/>
	<line class="st0" x1="46.672" y1="11.972" x2="54.672" y2="6.972"/>
	<line class="st0" x1="2.372" y1="33.472" x2="9.772" y2="28.872"/>
	<line class="st0" x1="47.672" y1="31.972" x2="55.972" y2="37.172"/>
	<line class="st0" x1="0.872" y1="3.272" x2="8.772" y2="8.272"/>
</g>
<g id="logger_x60_59x34">
	<polygon class="st0" points="23.472,32.972 15.872,14.472 25.172,0.872 32.872,19.372 	"/>
	<polygon class="st0" points="18.472,32.972 10.872,14.472 20.172,0.872 27.872,19.372 	"/>
	<polygon class="st0" points="13.472,32.972 5.872,14.472 15.172,0.872 22.872,19.372 	"/>
	<polygon class="st0" points="8.572,32.972 0.872,14.472 10.272,0.872 17.872,19.372 	"/>
	<polygon class="st0" points="48.472,32.972 40.872,14.472 50.172,0.872 57.872,19.372 	"/>
	<polygon class="st0" points="43.572,32.972 35.872,14.472 45.272,0.872 52.872,19.372 	"/>
	<polygon class="st0" points="38.572,32.972 30.872,14.472 40.272,0.872 47.872,19.372 	"/>
	<polygon class="st0" points="33.572,32.972 25.872,14.472 35.272,0.872 42.872,19.372 	"/>
</g>
<g id="monitor_x60_41x38">
	<polygon class="st0" points="1.072,6.672 9.872,0.872 28.772,13.472 19.972,19.272 	"/>
	<polygon class="st0" points="1.072,12.472 9.872,6.672 28.772,19.272 19.972,25.072 	"/>
	<polygon class="st0" points="1.072,18.372 9.872,12.472 28.772,25.072 19.972,30.872 	"/>
	<polygon class="st0" points="38.872,6.672 30.072,0.872 11.172,13.472 19.972,19.272 	"/>
	<polygon class="st0" points="38.872,12.472 30.072,6.672 11.172,19.272 19.972,25.072 	"/>
	<polygon class="st0" points="38.872,18.372 30.072,12.472 11.172,25.072 19.972,30.872 	"/>
	<polygon class="st0" points="1.072,24.172 9.872,18.372 28.772,30.872 19.972,36.772 	"/>
	<polygon class="st0" points="38.872,24.172 30.072,18.372 11.172,30.872 19.972,36.772 	"/>
	<line class="st0" x1="30.172" y1="12.472" x2="30.172" y2="0.872"/>
	<line class="st0" x1="39.372" y1="24.172" x2="39.372" y2="6.872"/>
	<line class="st0" x1="0.872" y1="24.172" x2="0.872" y2="6.872"/>
	<line class="st0" x1="9.972" y1="12.472" x2="9.972" y2="0.872"/>
</g>
<g id="warehouse_x60_51x29">
	
		<rect x="15.921" y="4.807" transform="matrix(0.7071 -0.7071 0.7071 0.7071 -2.6707 22.1653)" class="st0" width="19" height="19"/>
	
		<rect x="19.71" y="8.605" transform="matrix(0.7071 -0.7071 0.7071 0.7071 -2.6728 22.1578)" class="st0" width="11.4" height="11.4"/>
	
		<rect x="26.24" y="6.499" transform="matrix(0.707 -0.7072 0.7072 0.707 -0.1385 28.2627)" class="st0" width="15.6" height="15.6"/>
	
		<rect x="9.364" y="6.572" transform="matrix(0.7072 -0.707 0.707 0.7072 -5.1358 16.3431)" class="st0" width="15.6" height="15.6"/>
	<rect x="39.728" y="10.115" transform="matrix(0.707 -0.7072 0.7072 0.707 2.7472 35.26)" class="st0" width="8.4" height="8.4"/>
	
		<rect x="2.611" y="10.107" transform="matrix(0.7071 -0.7071 0.7071 0.7071 -8.1217 9.0067)" class="st0" width="8.4" height="8.4"/>
</g>
<g id="pusher_x60_69x32">
	<polyline class="st0" points="11.372,6.972 34.272,21.472 44.772,14.972 	"/>
	<polyline class="st0" points="44.772,21.072 34.272,27.572 11.372,13.072 11.372,0.872 34.272,15.372 44.772,8.872 	"/>
	<line class="st0" x1="6.872" y1="10.272" x2="29.872" y2="24.772"/>
	<polygon class="st0" points="6.872,4.172 29.872,18.672 29.872,30.872 6.872,16.372 	"/>
	<line class="st0" x1="44.772" y1="8.572" x2="67.672" y2="23.172"/>
	<polyline class="st0" points="44.772,14.672 67.672,29.272 67.672,17.072 44.772,2.572 44.872,8.772 34.472,2.172 11.472,16.672 
		11.472,28.872 34.472,14.372 44.872,20.972 	"/>
	<polyline class="st0" points="57.172,22.772 34.172,8.272 23.772,14.872 	"/>
	<polyline class="st0" points="23.772,8.772 34.172,2.172 57.172,16.672 57.172,28.872 34.172,14.372 23.772,20.972 	"/>
	<polyline class="st0" points="57.272,6.972 34.272,21.472 23.872,14.972 	"/>
	<polyline class="st0" points="23.872,21.072 34.272,27.572 57.272,13.072 57.272,0.872 34.272,15.372 23.872,8.872 	"/>
	<line class="st0" x1="61.772" y1="10.272" x2="38.772" y2="24.772"/>
	<polygon class="st0" points="61.772,4.172 38.772,18.672 38.772,30.872 61.772,16.372 	"/>
	<polyline class="st0" points="23.872,14.672 0.872,29.272 0.872,17.072 23.872,2.572 23.872,8.572 0.872,23.172 	"/>
	<polyline class="st0" points="11.472,22.772 34.472,8.272 44.872,14.872 	"/>
</g>
<g id="admin_x60_19x15">
	<ellipse transform="matrix(0.9413 -0.3375 0.3375 0.9413 -3.2027 3.2875)" class="st1" cx="7.853" cy="10.855" rx="2.4" ry="2.4"/>
	<ellipse transform="matrix(0.9412 -0.3377 0.3377 0.9412 -0.4446 3.7452)" class="st1" cx="10.542" cy="3.151" rx="2.4" ry="2.4"/>
	<ellipse transform="matrix(0.9413 -0.3376 0.3376 0.9413 -1.3716 5.8294)" class="st1" cx="16.075" cy="6.858" rx="1.5" ry="1.5"/>
	<line class="st1" x1="8.67" y1="8.657" x2="9.87" y2="5.357"/>
	<line class="st1" x1="14.97" y1="5.857" x2="12.77" y2="4.457"/>
	<ellipse transform="matrix(0.8869 -0.4619 0.4619 0.8869 -3.1403 1.8705)" class="st1" cx="2.25" cy="7.349" rx="1.5" ry="1.5"/>
	<line class="st1" x1="3.47" y1="8.157" x2="5.87" y2="9.257"/>
</g>
<g id="back-arrow_x60_16x12">
	<polyline class="st2" points="5.907,10.9 0.707,5.7 5.907,0.5 	"/>
	<line class="st2" x1="0.707" y1="5.7" x2="14.907" y2="5.7"/>
</g>
<g id="hex-hoarder_x60_47x54">
	<polygon id="_x3E_bg_3_" class="st3" points="46.5,40.3 23.2,53.7 0,40.3 0,13.4 23.2,0 46.5,13.4 	"/>
	
		<rect x="14.699" y="18.396" transform="matrix(0.7071 -0.7071 0.7071 0.7071 -12.2856 24.4318)" class="st4" width="17.3" height="17.3"/>
	
		<rect x="18.097" y="21.931" transform="matrix(0.7071 -0.7071 0.7071 0.7071 -12.3606 24.4199)" class="st4" width="10.4" height="10.4"/>
	
		<rect x="24.101" y="19.873" transform="matrix(0.707 -0.7072 0.7072 0.707 -9.9336 29.9686)" class="st4" width="14.2" height="14.2"/>
	
		<rect x="8.714" y="19.999" transform="matrix(0.7072 -0.707 0.707 0.7072 -14.529 19.1153)" class="st4" width="14.2" height="14.2"/>
	
		<rect x="36.387" y="23.17" transform="matrix(0.707 -0.7072 0.7072 0.707 -7.2987 36.3226)" class="st4" width="7.6" height="7.6"/>
	
		<rect x="2.56" y="23.185" transform="matrix(0.7071 -0.7071 0.7071 0.7071 -17.2188 12.4007)" class="st4" width="7.6" height="7.6"/>
</g>
<g id="hex-portal_x60_47x54">
	<polygon id="_x3E_bg_4_" class="st3" points="46.5,40.3 23.2,53.7 0,40.3 0,13.4 23.2,0 46.5,13.4 	"/>
	<polygon class="st4" points="6,38.8 11.4,35.5 36.2,35.5 36.2,28.9 11.4,28.9 6,32.2 	"/>
	<polygon class="st4" points="41.1,41.6 36.9,38.8 10.9,38.8 10.9,32.2 36.9,32.2 41.1,35 	"/>
	<polygon class="st4" points="42,14.9 35.3,19.4 10.6,19.4 10.6,26 35.3,26 42,21.4 	"/>
	<polygon class="st4" points="5,12.9 9.9,16.1 35.8,16.1 35.8,22.7 9.9,22.7 5,19.4 	"/>
	<line class="st4" x1="15.9" y1="16.1" x2="15.9" y2="32.2"/>
	<line class="st4" x1="29.7" y1="19.4" x2="29.7" y2="38.8"/>
	<line class="st4" x1="18.6" y1="19.4" x2="18.6" y2="35.5"/>
	<line class="st4" x1="32.4" y1="22.7" x2="32.4" y2="38.8"/>
	<line class="st4" x1="24.3" y1="22.7" x2="24.3" y2="35.5"/>
	<line class="st4" x1="37" y1="21.2" x2="44" y2="16.9"/>
	<line class="st4" x1="3.8" y1="36.8" x2="8" y2="34.2"/>
	<line class="st4" x1="38.2" y1="36.7" x2="41.5" y2="38.8"/>
	<line class="st4" x1="3.9" y1="15.5" x2="8.3" y2="18.5"/>
</g>
<g id="hex-pulse_x60_47x54">
	<polygon id="_x3E_bg_5_" class="st3" points="46.5,40.3 23.2,53.7 0,40.3 0,13.4 23.2,0 46.5,13.4 	"/>
	<polygon class="st4" points="5.8,18 13.9,12.7 31.2,24.2 23.1,29.5 	"/>
	<polygon class="st4" points="5.8,23.3 13.9,18 31.2,29.5 23.1,34.9 	"/>
	<polygon class="st4" points="5.8,28.7 13.9,23.3 31.2,34.9 23.1,40.2 	"/>
	<polygon class="st4" points="40.4,18 32.4,12.7 15.1,24.2 23.1,29.5 	"/>
	<line class="st4" x1="40.4" y1="33.8" x2="40.4" y2="18"/>
	<polygon class="st4" points="40.4,23.3 32.4,18 15.1,29.5 23.1,34.9 	"/>
	<polygon class="st4" points="40.4,28.7 32.4,23.3 15.1,34.9 23.1,40.2 	"/>
	<polygon class="st4" points="5.8,34 13.9,28.7 31.2,40.2 23.1,45.6 	"/>
	<polygon class="st4" points="40.4,34 32.4,28.7 15.1,40.2 23.1,45.6 	"/>
	<line class="st4" x1="32.5" y1="23.3" x2="32.5" y2="12.7"/>
	<line class="st4" x1="5.6" y1="34" x2="5.6" y2="18.2"/>
	<line class="st4" x1="14" y1="23.3" x2="14" y2="12.7"/>
</g>
<g id="hex-logvac_x60_47x54">
	<polygon id="_x3E_bg_6_" class="st3" points="46.5,40.3 23.2,53.7 0,40.3 0,13.4 23.2,0 46.5,13.4 	"/>
	<polygon class="st4" points="13.9,36.5 14,21 25.5,14.6 25.4,30.1 	"/>
	<polygon class="st4" points="10.1,34.9 10.2,19.4 21.6,13 21.6,28.5 	"/>
	<polygon class="st4" points="6.3,33.3 6.4,17.8 17.8,11.4 17.8,26.9 	"/>
	<polygon class="st4" points="2.6,31.7 2.6,16.2 14.1,9.8 14,25.3 	"/>
	<polygon class="st4" points="32.9,44.5 33.1,28.9 44.5,22.6 44.4,38.1 	"/>
	<polygon class="st4" points="29.2,42.9 29.3,27.3 40.8,21 40.6,36.5 	"/>
	<polygon class="st4" points="25.4,41.3 25.4,25.7 36.9,19.4 36.8,34.9 	"/>
	<polygon class="st4" points="21.6,39.7 21.6,24.1 33.1,17.8 33,33.3 	"/>
</g>
<g id="hex-mist_x60_47x54">
	<polygon id="_x3E_bg_7_" class="st3" points="46.5,40.3 23.2,53.7 0,40.3 0,13.4 23.2,0 46.5,13.4 	"/>
	<path class="st4" d="M40.6,27.5"/>
	<line class="st4" x1="43.8" y1="35.6" x2="23" y2="22.5"/>
	<line class="st4" x1="42.3" y1="40.2" x2="23" y2="28"/>
	<polyline class="st4" points="23,17 43.8,30.1 43.8,32.7 43.8,39.5 	"/>
	<line class="st4" x1="43.8" y1="30.1" x2="27.1" y2="19.5"/>
	<polyline class="st4" points="43.8,35.6 27.1,25 27.1,14 43.7,24.5 	"/>
	<polyline class="st4" points="22.9,40 43.7,26.8 43.7,15.8 22.9,28.9 	"/>
	<line class="st4" x1="23.1" y1="34.5" x2="32.6" y2="28.5"/>
	<line class="st4" x1="23.1" y1="28.9" x2="32.6" y2="23"/>
	<line class="st4" x1="32.6" y1="34" x2="23.1" y2="40"/>
	<line class="st4" x1="23" y1="22.5" x2="32.5" y2="28.5"/>
	<line class="st4" x1="23" y1="28" x2="32.5" y2="34"/>
	<line class="st4" x1="32.5" y1="22.9" x2="23" y2="17"/>
	<line class="st4" x1="43.7" y1="21.3" x2="22.9" y2="34.5"/>
	<line class="st4" x1="32.5" y1="28.6" x2="43.7" y2="21.5"/>
	<polyline class="st4" points="43.8,32.5 32.5,39.7 32.5,34.2 43.7,27.1 	"/>
	<path class="st4" d="M43.8,32.7"/>
	<path class="st4" d="M5.1,27.5"/>
	<line class="st4" x1="1.9" y1="35.6" x2="22.7" y2="22.5"/>
	<line class="st4" x1="3.5" y1="40.2" x2="22.7" y2="28"/>
	<polyline class="st4" points="22.7,17 1.9,30.1 1.9,32.7 1.9,39.5 	"/>
	<line class="st4" x1="1.9" y1="30.1" x2="18.7" y2="19.5"/>
	<polyline class="st4" points="1.9,35.6 18.7,25 18.7,14 2,24.5 	"/>
	<polyline class="st4" points="22.9,40 2,26.8 2,15.8 22.9,28.9 	"/>
	<line class="st4" x1="22.6" y1="34.5" x2="13.2" y2="28.5"/>
	<line class="st4" x1="22.6" y1="28.9" x2="13.2" y2="23"/>
	<line class="st4" x1="13.2" y1="34" x2="22.6" y2="40"/>
	<line class="st4" x1="22.7" y1="22.5" x2="13.3" y2="28.5"/>
	<line class="st4" x1="22.7" y1="28" x2="13.3" y2="34"/>
	<line class="st4" x1="13.3" y1="22.9" x2="22.7" y2="17"/>
	<line class="st4" x1="2" y1="21.3" x2="22.9" y2="34.5"/>
	<line class="st4" x1="13.3" y1="28.6" x2="2" y2="21.5"/>
	<polyline class="st4" points="1.9,32.5 13.3,39.7 13.3,34.2 2,27.1 	"/>
	<path class="st4" d="M1.9,32.7"/>
	<path class="st4" d="M1.9,32.7"/>
</g>
</svg>
