<?xml version="1.0" encoding="iso-8859-1"?>
<!-- Generator: Adobe Illustrator 20.0.0, SVG Export Plug-In . SVG Version: 6.00 Build 0)  -->
<svg version="1.1" id="Layer_1" xmlns="http://www.w3.org/2000/svg" xmlns:xlink="http://www.w3.org/1999/xlink" x="0px" y="0px"
	 viewBox="0 0 200 200" style="enable-background:new 0 0 200 200;" xml:space="preserve">
<style type="text/css">
	.st0{fill:none;stroke:#5F7C87;stroke-width:1.7432;stroke-linecap:round;stroke-linejoin:round;stroke-miterlimit:10;}
	.st1{fill:none;stroke:#678C9C;stroke-width:1.5;stroke-miterlimit:10;}
	.st2{fill:none;stroke:#729EB0;stroke-linecap:round;stroke-miterlimit:10;}
	.st3{fill:#58BFE8;}
	.st4{fill:none;stroke:#2E5573;stroke-width:1.7038;stroke-linecap:round;stroke-linejoin:round;stroke-miterlimit:10;}
</style>
<g id="mesh_x60_57x41">
	<polygon class="st0" points="4.872,35.772 14.872,29.472 43.372,29.472 43.372,21.872 14.872,21.872 4.872,28.172 	"/>
	<polygon class="st0" points="54.172,39.572 44.172,33.272 14.272,33.272 14.272,25.672 44.172,25.672 54.172,31.972 	"/>
	<polygon class="st0" points="52.372,4.672 42.372,10.972 13.972,10.972 13.972,18.472 42.372,18.472 52.372,12.172 	"/>
	<polygon class="st0" points="3.172,0.872 13.072,7.172 42.972,7.172 42.972,14.672 13.072,14.672 3.172,8.372 	"/>
	<line class="st0" x1="20.072" y1="7.172" x2="20.072" y2="25.672"/>
	<line class="st0" x1="35.872" y1="10.972" x2="35.872" y2="33.272"/>
	<line class="st0" x1="23.172" y1="10.972" x2="23.172" y2="29.472"/>
	<line class="st0" x1="39.072" y1="14.672" x2="39.072" y2="33.272"/>
	<line class="st0" x1="29.672" y1="14.672" x2="29.672" y2="29.472"/>
	<line class="st0" x1="46.672" y1="11.972" x2="54.672" y2="6.972"/>
	<line class="st0" x1="2.372" y1="33.472" x2="9.772" y2="28.872"/>
	<line class="st0" x1="47.672" y1="31.972" x2="55.972" y2="37.172"/>
	<line class="st0" x1="0.872" y1="3.272" x2="8.772" y2="8.272"/>
</g>
<g id="logger_x60_59x34">
	<polygon class="st0" points="23.472,32.972 15.872,14.472 25.172,0.872 32.872,19.372 	"/>
	<polygon class="st0" points="18.472,32.972 10.872,14.472 20.172,0.872 27.872,19.372 	"/>
	<polygon class="st0" points="13.472,32.972 5.872,14.472 15.172,0.872 22.872,19.372 	"/>
	<polygon class="st0" points="8.572,32.972 0.872,14.472 10.272,0.872 17.872,19.372 	"/>
	<polygon class="st0" points="48.472,32.972 40.872,14.472 50.172,0.872 57.872,19.372 	"/>
	<polygon class="st0" points="43.572,32.972 35.872,14.472 45.272,0.872 52.872,19.372 	"/>
	<polygon class="st0" points="38.572,32.972 30.872,14.472 40.272,0.872 47.872,19.372 	"/>
	<polygon class="st0" points="33.572,32.972 25.872,14.472 35.272,0.872 42.872,19.372 	"/>
</g>
<g id="monitor_x60_41x38">
	<polygon class="st0" points="1.072,6.672 9.872,0.872 28.772,13.472 19.972,19.272 	"/>
	<polygon class="st0" points="1.072,12.472 9.872,6.672 28.772,19.272 19.972,25.072 	"/>
	<polygon class="st0" points="1.072,18.372 9.872,12.472 28.772,25.072 19.972,30.872 	"/>
	<polygon class="st0" points="38.872,6.672 30.072,0.872 11.172,13.472 19.972,19.272 	"/>
	<polygon class="st0" points="38.872,12.472 30.072,6.672 11.172,19.272 19.972,25.072 	"/>
	<polygon class="st0" points="38.872,18.372 30.072,12.472 11.172,25.072 19.972,30.872 	"/>
	<polygon class="st0" points="1.072,24.172 9.872,18.372 28.772,30.872 19.972,36.772 	"/>
	<polygon class="st0" points="38.872,24.172 30.072,18.372 11.172,30.872 19.972,36.772 	"/>
	<line class="st0" x1="30.172" y1="12.472" x2="30.172" y2="0.872"/>
	<line class="st0" x1="39.372" y1="24.172" x2="39.372" y2="6.872"/>
	<line class="st0" x1="0.872" y1="24.172" x2="0.872" y2="6.872"/>
	<line class="st0" x1="9.972" y1="12.472" x2="9.972" y2="0.872"/>
</g>
<g id="warehouse_x60_51x29">
	
		<rect x="15.921" y="4.807" transform="matrix(0.7071 -0.7071 0.7071 0.7071 -2.6707 22.1653)" class="st0" width="19" height="19"/>
	
		<rect x="19.71" y="8.605" transform="matrix(0.7071 -0.7071 0.7071 0.7071 -2.6728 22.1578)" class="st0" width="11.4" height="11.4"/>
	
		<rect x="26.24" y="6.499" transform="matrix(0.707 -0.7072 0.7072 0.707 -0.1385 28.2627)" class="st0" width="15.6" height="15.6"/>
	
		<rect x="9.364" y="6.572" transform="matrix(0.7072 -0.707 0.707 0.7072 -5.1358 16.3431)" class="st0" width="15.6" height="15.6"/>
	<rect x="39.728" y="10.115" transform="matrix(0.707 -0.7072 0.7072 0.707 2.7472 35.26)" class="st0" width="8.4" height="8.4"/>
	
		<rect x="2.611" y="10.107" transform="matrix(0.7071 -0.7071 0.7071 0.7071 -8.1217 9.0067)" class="st0" width="8.4" height="8.4"/>
</g>
<g id="pusher_x60_69x32">
	<polyline class="st0" points="11.372,6.972 34.272,21.472 44.772,14.972 	"/>
	<polyline class="st0" points="44.772,21.072 34.272,27.572 11.372,13.072 11.372,0.872 34.272,15.372 44.772,8.872 	"/>
	<line class="st0" x1="6.872" y1="10.272" x2="29.872" y2="24.772"/>
	<polygon class="st0" points="6.872,4.172 29.872,18.672 29.872,30.872 6.872,16.372 	"/>
	<line class="st0" x1="44.772" y1="8.572" x2="67.672" y2="23.172"/>
	<polyline class="st0" points="44.772,14.672 67.672,29.272 67.672,17.072 44.772,2.572 44.872,8.772 34.472,2.172 11.472,16.672 
		11.472,28.872 34.472,14.372 44.872,20.972 	"/>
	<polyline class="st0" points="57.172,22.772 34.172,8.272 23.772,14.872 	"/>
	<polyline class="st0" points="23.772,8.772 34.172,2.172 57.172,16.672 57.172,28.872 34.172,14.372 23.772,20.972 	"/>
	<polyline class="st0" points="57.272,6.972 34.272,21.472 23.872,14.972 	"/>
	<polyline class="st0" points="23.872,21.072 34.272,27.572 57.272,13.072 57.272,0.872 34.272,15.372 23.872,8.872 	"/>
	<line class="st0" x1="61.772" y1="10.272" x2="38.772" y2="24.772"/>
	<polygon class="st0" points="61.772,4.172 38.772,18.672 38.772,30.872 61.772,16.372 	"/>
	<polyline class="st0" points="23.872,14.672 0.872,29.272 0.872,17.072 23.872,2.572 23.872,8.572 0.872,23.172 	"/>
	<polyline class="st0" points="11.472,22.772 34.472,8.272 44.872,14.872 	"/>
</g>
<g id="admin_x60_19x15">
	<ellipse transform="matrix(0.9413 -0.3375 0.3375 0.9413 -3.2027 3.2875)" class="st1" cx="7.853" cy="10.855" rx="2.4" ry="2.4"/>
	<ellipse transform="matrix(0.9412 -0.3377 0.3377 0.9412 -0.4446 3.7452)" class="st1" cx="10.542" cy="3.151" rx="2.4" ry="2.4"/>
	<ellipse transform="matrix(0.9413 -0.3376 0.3376 0.9413 -1.3716 5.8294)" class="st1" cx="16.075" cy="6.858" rx="1.5" ry="1.5"/>
	<line class="st1" x1="8.67" y1="8.657" x2="9.87" y2="5.357"/>
	<line class="st1" x1="14.97" y1="5.857" x2="12.77" y2="4.457"/>
	<ellipse transform="matrix(0.8869 -0.4619 0.4619 0.8869 -3.1403 1.8705)" class="st1" cx="2.25" cy="7.349" rx="1.5" ry="1.5"/>
	<line class="st1" x1="3.47" y1="8.157" x2="5.87" y2="9.257"/>
</g>
<g id="back-arrow_x60_16x12">
	<polyline class="st2" points="5.907,10.9 0.707,5.7 5.907,0.5 	"/>
	<line class="st2" x1="0.707" y1="5.7" x2="14.907" y2="5.7"/>
</g>
<g id="hex-hoarder_x60_47x54">
	<polygon id="_x3E_bg_3_" class="st3" points="46.5,40.3 23.2,53.7 0,40.3 0,13.4 23.2,0 46.5,13.4 	"/>
	
		<rect x="15.615" y="19.32" transform="matrix(0.7071 -0.7071 0.7071 0.7071 -12.288 24.4261)" class="st4" width="15.452" height="15.452"/>
	
		<rect x="18.65" y="22.477" transform="matrix(0.7071 -0.7071 0.7071 0.7071 -12.3549 24.4155)" class="st4" width="9.289" height="9.289"/>
	
		<rect x="24.013" y="20.639" transform="matrix(0.707 -0.7072 0.7072 0.707 -10.1873 29.3719)" class="st4" width="12.683" height="12.683"/>
	
		<rect x="10.27" y="20.752" transform="matrix(0.7072 -0.707 0.707 0.7072 -14.2917 19.677)" class="st4" width="12.683" height="12.683"/>
	
		<rect x="34.986" y="23.584" transform="matrix(0.707 -0.7072 0.7072 0.707 -7.8339 35.0471)" class="st4" width="6.788" height="6.788"/>
	
		<rect x="4.773" y="23.598" transform="matrix(0.7071 -0.7071 0.7071 0.7071 -16.6941 13.6803)" class="st4" width="6.788" height="6.788"/>
</g>
<g id="hex-portal_x60_47x54">
	<polygon id="_x3E_bg_4_" class="st3" points="46.5,40.3 23.2,53.7 0,40.3 0,13.4 23.2,0 46.5,13.4 	"/>
	<polygon class="st4" points="8.117,37.434 12.879,34.524 34.745,34.524 34.745,28.705 12.879,28.705 8.117,31.614 	"/>
	<polygon class="st4" points="39.065,39.902 35.362,37.434 12.438,37.434 12.438,31.614 35.362,31.614 39.065,34.083 	"/>
	<polygon class="st4" points="39.859,16.361 33.951,20.329 12.173,20.329 12.173,26.148 33.951,26.148 39.859,22.092 	"/>
	<polygon class="st4" points="7.236,14.598 11.556,17.419 34.392,17.419 34.392,23.238 11.556,23.238 7.236,20.329 	"/>
	<line class="st4" x1="16.846" y1="17.419" x2="16.846" y2="31.614"/>
	<line class="st4" x1="29.014" y1="20.329" x2="29.014" y2="37.434"/>
	<line class="st4" x1="19.227" y1="20.329" x2="19.227" y2="34.524"/>
	<line class="st4" x1="31.394" y1="23.238" x2="31.394" y2="37.434"/>
	<line class="st4" x1="24.253" y1="23.238" x2="24.253" y2="34.524"/>
	<line class="st4" x1="35.45" y1="21.916" x2="41.622" y2="18.124"/>
	<line class="st4" x1="6.178" y1="35.67" x2="9.881" y2="33.378"/>
	<line class="st4" x1="36.508" y1="35.582" x2="39.418" y2="37.434"/>
	<line class="st4" x1="6.266" y1="16.89" x2="10.145" y2="19.535"/>
</g>
<g id="hex-pulse_x60_47x54">
	<polygon id="_x3E_bg_5_" class="st3" points="46.5,40.3 23.2,53.7 0,40.3 0,13.4 23.2,0 46.5,13.4 	"/>
	<polygon class="st4" points="8.219,19.568 15.18,15.013 30.047,24.896 23.086,29.451 	"/>
	<polygon class="st4" points="8.219,24.123 15.18,19.568 30.047,29.451 23.086,34.091 	"/>
	<polygon class="st4" points="8.219,28.763 15.18,24.123 30.047,34.091 23.086,38.646 	"/>
	<polygon class="st4" points="37.953,19.568 31.078,15.013 16.211,24.896 23.086,29.451 	"/>
	<line class="st4" x1="37.953" y1="33.146" x2="37.953" y2="19.568"/>
	<polygon class="st4" points="37.953,24.123 31.078,19.568 16.211,29.451 23.086,34.091 	"/>
	<polygon class="st4" points="37.953,28.763 31.078,24.123 16.211,34.091 23.086,38.646 	"/>
	<polygon class="st4" points="8.219,33.318 15.18,28.763 30.047,38.646 23.086,43.287 	"/>
	<polygon class="st4" points="37.953,33.318 31.078,28.763 16.211,38.646 23.086,43.287 	"/>
	<line class="st4" x1="31.164" y1="24.123" x2="31.164" y2="15.013"/>
	<line class="st4" x1="8.047" y1="33.318" x2="8.047" y2="19.74"/>
	<line class="st4" x1="15.266" y1="24.123" x2="15.266" y2="15.013"/>
</g>
<g id="hex-logvac_x60_47x54">
	<polygon id="_x3E_bg_6_" class="st3" points="46.5,40.3 23.2,53.7 0,40.3 0,13.4 23.2,0 46.5,13.4 	"/>
	<polygon class="st4" points="15.06,35.376 15.148,21.739 25.266,16.109 25.178,29.745 	"/>
	<polygon class="st4" points="11.717,33.968 11.805,20.332 21.834,14.701 21.834,28.338 	"/>
	<polygon class="st4" points="8.373,32.561 8.461,18.924 18.491,13.293 18.491,26.93 	"/>
	<polygon class="st4" points="5.118,31.153 5.118,17.516 15.236,11.885 15.148,25.522 	"/>
	<polygon class="st4" points="31.776,42.415 31.952,28.69 41.982,23.147 41.894,36.784 	"/>
	<polygon class="st4" points="28.521,41.007 28.609,27.282 38.727,21.739 38.551,35.376 	"/>
	<polygon class="st4" points="25.178,39.599 25.178,25.874 35.295,20.332 35.207,33.968 	"/>
	<polygon class="st4" points="21.834,38.191 21.834,24.467 31.952,18.924 31.864,32.561 	"/>
</g>
<g id="hex-mist_x60_47x54">
	<polygon id="_x3E_bg_7_" class="st3" points="46.5,40.3 23.2,53.7 0,40.3 0,13.4 23.2,0 46.5,13.4 	"/>
	<path class="st4" d="M38.32,26.449"/>
	<line class="st4" x1="41.109" y1="33.508" x2="22.981" y2="22.091"/>
	<line class="st4" x1="39.802" y1="37.517" x2="22.981" y2="26.884"/>
	<polyline class="st4" points="22.981,17.297 41.109,28.715 41.109,30.981 41.109,36.907 	"/>
	<line class="st4" x1="41.109" y1="28.715" x2="26.554" y2="19.476"/>
	<polyline class="st4" points="41.109,33.508 26.554,24.27 26.554,14.683 41.022,23.834 	"/>
	<polyline class="st4" points="22.894,37.343 41.022,25.839 41.022,16.252 22.894,27.669 	"/>
	<line class="st4" x1="23.068" y1="32.549" x2="31.348" y2="27.32"/>
	<line class="st4" x1="23.068" y1="27.669" x2="31.348" y2="22.527"/>
	<line class="st4" x1="31.348" y1="32.114" x2="23.068" y2="37.343"/>
	<line class="st4" x1="22.981" y1="22.091" x2="31.26" y2="27.32"/>
	<line class="st4" x1="22.981" y1="26.884" x2="31.26" y2="32.114"/>
	<line class="st4" x1="31.26" y1="22.44" x2="22.981" y2="17.297"/>
	<line class="st4" x1="41.022" y1="21.045" x2="22.894" y2="32.549"/>
	<line class="st4" x1="31.26" y1="27.407" x2="41.022" y2="21.219"/>
	<polyline class="st4" points="41.109,30.806 31.26,37.081 31.26,32.288 41.022,26.1 	"/>
	<path class="st4" d="M41.109,30.981"/>
	<path class="st4" d="M7.38,26.449"/>
	<line class="st4" x1="4.591" y1="33.508" x2="22.719" y2="22.091"/>
	<line class="st4" x1="5.986" y1="37.517" x2="22.719" y2="26.884"/>
	<polyline class="st4" points="22.719,17.297 4.591,28.715 4.591,30.981 4.591,36.907 	"/>
	<line class="st4" x1="4.591" y1="28.715" x2="19.233" y2="19.476"/>
	<polyline class="st4" points="4.591,33.508 19.233,24.27 19.233,14.683 4.678,23.834 	"/>
	<polyline class="st4" points="22.894,37.343 4.678,25.839 4.678,16.252 22.894,27.669 	"/>
	<line class="st4" x1="22.632" y1="32.549" x2="14.44" y2="27.32"/>
	<line class="st4" x1="22.632" y1="27.669" x2="14.44" y2="22.527"/>
	<line class="st4" x1="14.44" y1="32.114" x2="22.632" y2="37.343"/>
	<line class="st4" x1="22.719" y1="22.091" x2="14.527" y2="27.32"/>
	<line class="st4" x1="22.719" y1="26.884" x2="14.527" y2="32.114"/>
	<line class="st4" x1="14.527" y1="22.44" x2="22.719" y2="17.297"/>
	<line class="st4" x1="4.678" y1="21.045" x2="22.894" y2="32.549"/>
	<line class="st4" x1="14.527" y1="27.407" x2="4.678" y2="21.219"/>
	<polyline class="st4" points="4.591,30.806 14.527,37.081 14.527,32.288 4.678,26.1 	"/>
	<path class="st4" d="M4.591,30.981"/>
	<path class="st4" d="M4.591,30.981"/>
</g>
</svg>
