<?xml version="1.0" encoding="utf-8"?>
<!-- Generator: Adobe Illustrator 19.2.1, SVG Export Plug-In . SVG Version: 6.00 Build 0)  -->
<svg version="1.1" id="svgs" xmlns="http://www.w3.org/2000/svg" xmlns:xlink="http://www.w3.org/1999/xlink" x="0px" y="0px"
	 width="1020.7px" height="205px" viewBox="0 0 1020.7 205" style="enable-background:new 0 0 1020.7 205;" xml:space="preserve">
<style type="text/css">
	.st0{fill:none;stroke:#5F7C87;stroke-width:1.7432;stroke-linecap:round;stroke-linejoin:round;stroke-miterlimit:10;}
	.st1{fill:none;stroke:#678C9C;stroke-width:1.5;stroke-miterlimit:10;}
	.st2{fill:none;stroke:#729EB0;stroke-linecap:round;stroke-miterlimit:10;}
</style>
<g id="load-balancer">
	<polyline class="st0" points="48.4,91 71.3,105.5 81.8,99 	"/>
	<polyline class="st0" points="81.8,105.1 71.3,111.6 48.4,97.1 48.4,84.9 71.3,99.4 81.8,92.9 	"/>
	<line class="st0" x1="43.9" y1="94.3" x2="66.9" y2="108.8"/>
	<polygon class="st0" points="43.9,88.2 66.9,102.7 66.9,114.9 43.9,100.4 	"/>
	<line class="st0" x1="81.8" y1="92.6" x2="104.7" y2="107.2"/>
	<polyline class="st0" points="81.8,98.7 104.7,113.3 104.7,101.1 81.8,86.6 81.9,92.8 71.5,86.2 48.5,100.7 48.5,112.9 71.5,98.4 
		81.9,105 	"/>
	<polyline class="st0" points="94.2,106.8 71.2,92.3 60.8,98.9 	"/>
	<polyline class="st0" points="60.8,92.8 71.2,86.2 94.2,100.7 94.2,112.9 71.2,98.4 60.8,105 	"/>
	<polyline class="st0" points="94.3,91 71.3,105.5 60.9,99 	"/>
	<polyline class="st0" points="60.9,105.1 71.3,111.6 94.3,97.1 94.3,84.9 71.3,99.4 60.9,92.9 	"/>
	<line class="st0" x1="98.8" y1="94.3" x2="75.8" y2="108.8"/>
	<polygon class="st0" points="98.8,88.2 75.8,102.7 75.8,114.9 98.8,100.4 	"/>
	<polyline class="st0" points="60.9,98.7 37.9,113.3 37.9,101.1 60.9,86.6 60.9,92.6 37.9,107.2 	"/>
	<polyline class="st0" points="48.5,106.8 71.5,92.3 81.9,98.9 	"/>
</g>
<g id="router">
	<polygon class="st0" points="529,111.9 539,105.6 567.5,105.6 567.5,98 539,98 529,104.3 	"/>
	<polygon class="st0" points="578.3,115.7 568.3,109.4 538.4,109.4 538.4,101.8 568.3,101.8 578.3,108.1 	"/>
	<polygon class="st0" points="576.5,80.8 566.5,87.1 538.1,87.1 538.1,94.6 566.5,94.6 576.5,88.3 	"/>
	<polygon class="st0" points="527.3,77 537.2,83.3 567.1,83.3 567.1,90.8 537.2,90.8 527.3,84.5 	"/>
	<line class="st0" x1="544.2" y1="83.3" x2="544.2" y2="101.8"/>
	<line class="st0" x1="560" y1="87.1" x2="560" y2="109.4"/>
	<line class="st0" x1="547.3" y1="87.1" x2="547.3" y2="105.6"/>
	<line class="st0" x1="563.2" y1="90.8" x2="563.2" y2="109.4"/>
	<line class="st0" x1="553.8" y1="90.8" x2="553.8" y2="105.6"/>
	<line class="st0" x1="570.8" y1="88.1" x2="578.8" y2="83.1"/>
	<line class="st0" x1="526.5" y1="109.6" x2="533.9" y2="105"/>
	<line class="st0" x1="571.8" y1="108.1" x2="580.1" y2="113.3"/>
	<line class="st0" x1="525" y1="79.4" x2="532.9" y2="84.4"/>
</g>
<g id="logger">
	<polygon class="st0" points="226,113.1 218.4,94.6 227.7,81 235.4,99.5 	"/>
	<polygon class="st0" points="221,113.1 213.4,94.6 222.7,81 230.4,99.5 	"/>
	<polygon class="st0" points="216,113.1 208.4,94.6 217.7,81 225.4,99.5 	"/>
	<polygon class="st0" points="211.1,113.1 203.4,94.6 212.8,81 220.4,99.5 	"/>
	<polygon class="st0" points="251,113.1 243.4,94.6 252.7,81 260.4,99.5 	"/>
	<polygon class="st0" points="246.1,113.1 238.4,94.6 247.8,81 255.4,99.5 	"/>
	<polygon class="st0" points="241.1,113.1 233.4,94.6 242.8,81 250.4,99.5 	"/>
	<polygon class="st0" points="236.1,113.1 228.4,94.6 237.8,81 245.4,99.5 	"/>
</g>
<g id="health-monitor">
	<polygon class="st0" points="374.1,86.8 382.9,81 401.8,93.6 393,99.4 	"/>
	<polygon class="st0" points="374.1,92.6 382.9,86.8 401.8,99.4 393,105.2 	"/>
	<polygon class="st0" points="374.1,98.5 382.9,92.6 401.8,105.2 393,111 	"/>
	<polygon class="st0" points="411.9,86.8 403.1,81 384.2,93.6 393,99.4 	"/>
	<polygon class="st0" points="411.9,92.6 403.1,86.8 384.2,99.4 393,105.2 	"/>
	<polygon class="st0" points="411.9,98.5 403.1,92.6 384.2,105.2 393,111 	"/>
	<polygon class="st0" points="374.1,104.3 382.9,98.5 401.8,111 393,116.9 	"/>
	<polygon class="st0" points="411.9,104.3 403.1,98.5 384.2,111 393,116.9 	"/>
	<line class="st0" x1="403.2" y1="92.6" x2="403.2" y2="81"/>
	<line class="st0" x1="412.4" y1="104.3" x2="412.4" y2="87"/>
	<line class="st0" x1="373.9" y1="104.3" x2="373.9" y2="87"/>
	<line class="st0" x1="383" y1="92.6" x2="383" y2="81"/>
</g>
<g id="glob-storage">
	
		<rect x="678.8" y="86.2" transform="matrix(0.7071 -0.7071 0.7071 0.7071 133.9372 514.7511)" class="st0" width="19" height="19"/>
	
		<rect x="682.6" y="90" transform="matrix(0.7071 -0.7071 0.7071 0.7071 133.9306 514.7626)" class="st0" width="11.4" height="11.4"/>
	
		<rect x="689.1" y="87.9" transform="matrix(0.707 -0.7072 0.7072 0.707 136.5163 520.8838)" class="st0" width="15.6" height="15.6"/>
	
		<rect x="672.2" y="87.9" transform="matrix(0.7072 -0.707 0.707 0.7072 131.4281 508.8351)" class="st0" width="15.6" height="15.6"/>
	
		<rect x="702.6" y="91.5" transform="matrix(0.707 -0.7072 0.7072 0.707 139.4302 527.9078)" class="st0" width="8.4" height="8.4"/>
	
		<rect x="665.5" y="91.5" transform="matrix(0.7071 -0.7071 0.7071 0.7071 128.4855 501.6108)" class="st0" width="8.4" height="8.4"/>
</g>
<g id="admin">
	
		<ellipse transform="matrix(0.9413 -0.3375 0.3375 0.9413 12.9302 276.1648)" class="st1" cx="800.7" cy="100.9" rx="2.4" ry="2.4"/>
	<ellipse transform="matrix(0.9412 -0.3377 0.3377 0.9412 15.7263 276.7833)" class="st1" cx="803.4" cy="93.2" rx="2.4" ry="2.4"/>
	<ellipse transform="matrix(0.9413 -0.3376 0.3376 0.9413 14.7768 278.7729)" class="st1" cx="808.9" cy="96.9" rx="1.5" ry="1.5"/>
	<line class="st1" x1="801.5" y1="98.7" x2="802.7" y2="95.4"/>
	<line class="st1" x1="807.8" y1="95.9" x2="805.6" y2="94.5"/>
	<ellipse transform="matrix(0.8869 -0.4619 0.4619 0.8869 44.9067 378.2749)" class="st1" cx="795.1" cy="97.4" rx="1.5" ry="1.5"/>
	<line class="st1" x1="796.3" y1="98.2" x2="798.7" y2="99.3"/>
</g>
<g>
	<polyline class="st2" points="885,104.2 879.8,99 885,93.8 	"/>
	<line class="st2" x1="879.8" y1="99" x2="894" y2="99"/>
</g>
</svg>
