<?xml version="1.0" encoding="utf-8"?>
<!-- Generator: Adobe Illustrator 22.1.0, SVG Export Plug-In . SVG Version: 6.00 Build 0)  -->
<svg version="1.1" id="svgs" xmlns="http://www.w3.org/2000/svg" xmlns:xlink="http://www.w3.org/1999/xlink" x="0px" y="0px"
	 viewBox="0 0 1020.7 205" style="enable-background:new 0 0 1020.7 205;" xml:space="preserve">
<style type="text/css">
	.st0{fill:none;stroke:#5F7C87;stroke-width:1.7432;stroke-linecap:round;stroke-linejoin:round;stroke-miterlimit:10;}
	.st1{fill:none;stroke:#678C9C;stroke-width:1.5;stroke-miterlimit:10;}
	.st2{fill:none;stroke:#729EB0;stroke-linecap:round;stroke-miterlimit:10;}
	.st3{fill:#58BFE8;}
	.st4{fill:none;stroke:#2E5573;stroke-width:1.7038;stroke-linecap:round;stroke-linejoin:round;stroke-miterlimit:10;}
</style>
<g id="mesh">
	<polygon class="st0" points="342,60.4 352,54.1 380.5,54.1 380.5,46.5 352,46.5 342,52.8 	"/>
	<polygon class="st0" points="391.3,64.2 381.3,57.9 351.4,57.9 351.4,50.3 381.3,50.3 391.3,56.6 	"/>
	<polygon class="st0" points="389.5,29.3 379.5,35.6 351.1,35.6 351.1,43.1 379.5,43.1 389.5,36.8 	"/>
	<polygon class="st0" points="340.3,25.5 350.2,31.8 380.1,31.8 380.1,39.3 350.2,39.3 340.3,33 	"/>
	<line class="st0" x1="357.2" y1="31.8" x2="357.2" y2="50.3"/>
	<line class="st0" x1="373" y1="35.6" x2="373" y2="57.9"/>
	<line class="st0" x1="360.3" y1="35.6" x2="360.3" y2="54.1"/>
	<line class="st0" x1="376.2" y1="39.3" x2="376.2" y2="57.9"/>
	<line class="st0" x1="366.8" y1="39.3" x2="366.8" y2="54.1"/>
	<line class="st0" x1="383.8" y1="36.6" x2="391.8" y2="31.6"/>
	<line class="st0" x1="339.5" y1="58.1" x2="346.9" y2="53.5"/>
	<line class="st0" x1="384.8" y1="56.6" x2="393.1" y2="61.8"/>
	<line class="st0" x1="338" y1="27.9" x2="345.9" y2="32.9"/>
</g>
<g id="logger">
	<polygon class="st0" points="169,61.6 161.4,43.1 170.7,29.5 178.4,48 	"/>
	<polygon class="st0" points="164,61.6 156.4,43.1 165.7,29.5 173.4,48 	"/>
	<polygon class="st0" points="159,61.6 151.4,43.1 160.7,29.5 168.4,48 	"/>
	<polygon class="st0" points="154.1,61.6 146.4,43.1 155.8,29.5 163.4,48 	"/>
	<polygon class="st0" points="194,61.6 186.4,43.1 195.7,29.5 203.4,48 	"/>
	<polygon class="st0" points="189.1,61.6 181.4,43.1 190.8,29.5 198.4,48 	"/>
	<polygon class="st0" points="184.1,61.6 176.4,43.1 185.8,29.5 193.4,48 	"/>
	<polygon class="st0" points="179.1,61.6 171.4,43.1 180.8,29.5 188.4,48 	"/>
</g>
<g id="monitor">
	<polygon class="st0" points="247.1,35.3 255.9,29.5 274.8,42.1 266,47.9 	"/>
	<polygon class="st0" points="247.1,41.1 255.9,35.3 274.8,47.9 266,53.7 	"/>
	<polygon class="st0" points="247.1,47 255.9,41.1 274.8,53.7 266,59.5 	"/>
	<polygon class="st0" points="284.9,35.3 276.1,29.5 257.2,42.1 266,47.9 	"/>
	<polygon class="st0" points="284.9,41.1 276.1,35.3 257.2,47.9 266,53.7 	"/>
	<polygon class="st0" points="284.9,47 276.1,41.1 257.2,53.7 266,59.5 	"/>
	<polygon class="st0" points="247.1,52.8 255.9,47 274.8,59.5 266,65.4 	"/>
	<polygon class="st0" points="284.9,52.8 276.1,47 257.2,59.5 266,65.4 	"/>
	<line class="st0" x1="276.2" y1="41.1" x2="276.2" y2="29.5"/>
	<line class="st0" x1="285.4" y1="52.8" x2="285.4" y2="35.5"/>
	<line class="st0" x1="246.9" y1="52.8" x2="246.9" y2="35.5"/>
	<line class="st0" x1="256" y1="41.1" x2="256" y2="29.5"/>
</g>
<g id="warehouse">
	
		<rect x="451.8" y="34.7" transform="matrix(0.7071 -0.7071 0.7071 0.7071 103.8368 339.1211)" class="st0" width="19" height="19"/>
	
		<rect x="455.6" y="38.5" transform="matrix(0.7071 -0.7071 0.7071 0.7071 103.8348 339.1129)" class="st0" width="11.4" height="11.4"/>
	
		<rect x="462.1" y="36.4" transform="matrix(0.707 -0.7072 0.7072 0.707 106.4092 345.2646)" class="st0" width="15.6" height="15.6"/>
	
		<rect x="445.2" y="36.5" transform="matrix(0.7072 -0.707 0.707 0.7072 101.3307 333.2523)" class="st0" width="15.6" height="15.6"/>
	<rect x="475.6" y="40" transform="matrix(0.707 -0.7072 0.7072 0.707 109.2951 352.2621)" class="st0" width="8.4" height="8.4"/>
	<rect x="438.5" y="40" transform="matrix(0.7071 -0.7071 0.7071 0.7071 98.386 325.9617)" class="st0" width="8.4" height="8.4"/>
</g>
<g id="pusher">
	<polyline class="st0" points="51.4,39.5 74.3,54 84.8,47.5 	"/>
	<polyline class="st0" points="84.8,53.6 74.3,60.1 51.4,45.6 51.4,33.4 74.3,47.9 84.8,41.4 	"/>
	<line class="st0" x1="46.9" y1="42.8" x2="69.9" y2="57.3"/>
	<polygon class="st0" points="46.9,36.7 69.9,51.2 69.9,63.4 46.9,48.9 	"/>
	<line class="st0" x1="84.8" y1="41.1" x2="107.7" y2="55.7"/>
	<polyline class="st0" points="84.8,47.2 107.7,61.8 107.7,49.6 84.8,35.1 84.9,41.3 74.5,34.7 51.5,49.2 51.5,61.4 74.5,46.9 
		84.9,53.5 	"/>
	<polyline class="st0" points="97.2,55.3 74.2,40.8 63.8,47.4 	"/>
	<polyline class="st0" points="63.8,41.3 74.2,34.7 97.2,49.2 97.2,61.4 74.2,46.9 63.8,53.5 	"/>
	<polyline class="st0" points="97.3,39.5 74.3,54 63.9,47.5 	"/>
	<polyline class="st0" points="63.9,53.6 74.3,60.1 97.3,45.6 97.3,33.4 74.3,47.9 63.9,41.4 	"/>
	<line class="st0" x1="101.8" y1="42.8" x2="78.8" y2="57.3"/>
	<polygon class="st0" points="101.8,36.7 78.8,51.2 78.8,63.4 101.8,48.9 	"/>
	<polyline class="st0" points="63.9,47.2 40.9,61.8 40.9,49.6 63.9,35.1 63.9,41.1 40.9,55.7 	"/>
	<polyline class="st0" points="51.5,55.3 74.5,40.8 84.9,47.4 	"/>
</g>
<g id="admin">
	<ellipse class="st1" cx="504.4" cy="134" rx="2.4" ry="2.4"/>
	<ellipse class="st1" cx="507.1" cy="126.3" rx="2.4" ry="2.4"/>
	<ellipse class="st1" cx="512.7" cy="129.9" rx="1.5" ry="1.5"/>
	<line class="st1" x1="505.2" y1="131.7" x2="506.4" y2="128.4"/>
	<line class="st1" x1="511.5" y1="128.9" x2="509.3" y2="127.5"/>
	<ellipse class="st1" cx="498.8" cy="130.4" rx="1.5" ry="1.5"/>
	<line class="st1" x1="500" y1="131.2" x2="502.4" y2="132.3"/>
</g>
<g id="resolver">
	<rect x="532" y="35.3" class="st0" width="14.4" height="17.4"/>
	<rect x="536" y="39.3" class="st0" width="6.3" height="9.3"/>
	<polyline class="st0" points="556.7,47 556.7,52.6 542.3,52.6 542.3,35.3 556.7,35.3 556.7,40.6 	"/>
	<polyline class="st0" points="552.7,48.6 546.3,48.6 546.3,39.3 552.7,39.3 	"/>
	<polyline class="st0" points="552.7,40.7 552.7,35.3 567,35.3 567,52.6 552.7,52.6 552.7,46.9 	"/>
	<polyline class="st0" points="556.7,40.6 556.7,39.3 563,39.3 563,48.6 556.7,48.6 556.7,47 	"/>
	<polyline class="st0" points="539.3,43.9 524.3,43.9 524.3,48.6 532,48.6 	"/>
	<polyline class="st0" points="567,39.3 576.8,39.3 576.8,43.9 570.3,43.9 	"/>
	<polyline class="st0" points="567,48.6 576.8,48.6 576.8,43.9 	"/>
	<polyline class="st0" points="532,39.3 524.3,39.3 524.3,43.9 	"/>
	<line class="st0" x1="549.3" y1="43.9" x2="559.8" y2="43.9"/>
	<polyline class="st0" points="552.7,35.7 552.7,31.2 540.3,31.2 536,31.2 536,35.3 	"/>
	<polyline class="st0" points="552.7,52.1 552.7,56.6 536,56.6 536,52.6 	"/>
	<polyline class="st0" points="556.7,52.1 556.7,56.6 563,56.6 563,52.6 	"/>
	<polyline class="st0" points="556.7,35.7 556.7,31.2 563,31.2 563,35.3 	"/>
</g>
<g id="back-arrow">
	<polyline class="st2" points="568.7,137.2 563.5,132 568.7,126.8 	"/>
	<line class="st2" x1="563.5" y1="132" x2="577.7" y2="132"/>
</g>
<g id="hex-hoarder">
	<polygon id="_x3E_bg_3_" class="st3" points="376.1,146.2 352.8,159.6 329.6,146.2 329.6,119.3 352.8,105.9 376.1,119.3 	"/>
	
		<rect x="345.2" y="125.2" transform="matrix(0.7071 -0.7071 0.7071 0.7071 9.3631 288.5026)" class="st4" width="15.5" height="15.5"/>
	
		<rect x="348.2" y="128.4" transform="matrix(0.7071 -0.7071 0.7071 0.7071 9.2959 288.4918)" class="st4" width="9.3" height="9.3"/>
	
		<rect x="353.6" y="126.5" transform="matrix(0.707 -0.7072 0.7072 0.707 11.4866 293.4912)" class="st4" width="12.7" height="12.7"/>
	
		<rect x="339.9" y="126.7" transform="matrix(0.7072 -0.707 0.707 0.7072 7.3376 283.7095)" class="st4" width="12.7" height="12.7"/>
	
		<rect x="364.6" y="129.5" transform="matrix(0.707 -0.7072 0.7072 0.707 13.8392 299.1668)" class="st4" width="6.8" height="6.8"/>
	
		<rect x="334.4" y="129.5" transform="matrix(0.7071 -0.7071 0.7071 0.7071 4.9574 277.7567)" class="st4" width="6.8" height="6.8"/>
</g>
<g id="hex-resolver">
	<polygon id="_x3E_bg_1_" class="st3" points="442.1,146.2 418.8,159.6 395.6,146.2 395.6,119.3 418.8,105.9 442.1,119.3 	"/>
	<rect x="405.4" y="125.3" class="st4" width="10.7" height="15.1"/>
	<rect x="408.4" y="128.3" class="st4" width="4.7" height="9.1"/>
	<polyline class="st4" points="423.8,135.2 423.8,140.4 413.1,140.4 413.1,125.3 423.8,125.3 423.8,130.4 	"/>
	<polyline class="st4" points="420.8,137.4 416.1,137.4 416.1,128.3 420.8,128.3 	"/>
	<polyline class="st4" points="420.8,130.5 420.8,125.3 431.5,125.3 431.5,140.4 420.8,140.4 420.8,135.1 	"/>
	<polyline class="st4" points="423.8,130.4 423.8,128.3 428.5,128.3 428.5,137.4 423.8,137.4 423.8,135.2 	"/>
	<polyline class="st4" points="410.9,132.9 400.9,132.9 400.9,137.4 405.4,137.4 	"/>
	<polyline class="st4" points="431.5,128.3 437.5,128.3 437.5,132.9 433.9,132.9 	"/>
	<polyline class="st4" points="431.5,137.4 437.5,137.4 437.5,132.9 	"/>
	<polyline class="st4" points="405.4,128.3 400.9,128.3 400.9,132.9 	"/>
	<line class="st4" x1="418.3" y1="132.9" x2="426.1" y2="132.9"/>
	<polyline class="st4" points="420.8,125.7 420.8,121.8 411.6,121.8 408.4,121.8 408.4,125.3 	"/>
	<polyline class="st4" points="420.8,140.1 420.8,144 408.4,144 408.4,140.4 	"/>
	<polyline class="st4" points="423.8,140.1 423.8,144 428.5,144 428.5,140.4 	"/>
	<polyline class="st4" points="423.8,125.7 423.8,121.8 428.5,121.8 428.5,125.3 	"/>
</g>
<g id="hex-portal">
	<polygon id="_x3E_bg_4_" class="st3" points="304.2,146.2 280.9,159.6 257.7,146.2 257.7,119.3 280.9,105.9 304.2,119.3 	"/>
	<polygon class="st4" points="265.8,143.3 270.6,140.4 292.4,140.4 292.4,134.6 270.6,134.6 265.8,137.5 	"/>
	<polygon class="st4" points="296.8,145.8 293.1,143.3 270.1,143.3 270.1,137.5 293.1,137.5 296.8,140 	"/>
	<polygon class="st4" points="297.6,122.3 291.7,126.2 269.9,126.2 269.9,132 291.7,132 297.6,128 	"/>
	<polygon class="st4" points="264.9,120.5 269.3,123.3 292.1,123.3 292.1,129.1 269.3,129.1 264.9,126.2 	"/>
	<line class="st4" x1="274.5" y1="123.3" x2="274.5" y2="137.5"/>
	<line class="st4" x1="286.7" y1="126.2" x2="286.7" y2="143.3"/>
	<line class="st4" x1="276.9" y1="126.2" x2="276.9" y2="140.4"/>
	<line class="st4" x1="289.1" y1="129.1" x2="289.1" y2="143.3"/>
	<line class="st4" x1="282" y1="129.1" x2="282" y2="140.4"/>
	<line class="st4" x1="293.1" y1="127.8" x2="299.3" y2="124"/>
	<line class="st4" x1="263.9" y1="141.6" x2="267.6" y2="139.3"/>
	<line class="st4" x1="294.2" y1="141.5" x2="297.1" y2="143.3"/>
	<line class="st4" x1="264" y1="122.8" x2="267.8" y2="125.4"/>
</g>
<g id="hex-pulse">
	<polygon id="_x3E_bg_5_" class="st3" points="232.6,146.2 209.3,159.6 186.1,146.2 186.1,119.3 209.3,105.9 232.6,119.3 	"/>
	<polygon class="st4" points="194.3,125.5 201.3,120.9 216.1,130.8 209.2,135.4 	"/>
	<polygon class="st4" points="194.3,130 201.3,125.5 216.1,135.4 209.2,140 	"/>
	<polygon class="st4" points="194.3,134.7 201.3,130 216.1,140 209.2,144.5 	"/>
	<polygon class="st4" points="224.1,125.5 217.2,120.9 202.3,130.8 209.2,135.4 	"/>
	<line class="st4" x1="224.1" y1="139" x2="224.1" y2="125.5"/>
	<polygon class="st4" points="224.1,130 217.2,125.5 202.3,135.4 209.2,140 	"/>
	<polygon class="st4" points="224.1,134.7 217.2,130 202.3,140 209.2,144.5 	"/>
	<polygon class="st4" points="194.3,139.2 201.3,134.7 216.1,144.5 209.2,149.2 	"/>
	<polygon class="st4" points="224.1,139.2 217.2,134.7 202.3,144.5 209.2,149.2 	"/>
	<line class="st4" x1="217.3" y1="130" x2="217.3" y2="120.9"/>
	<line class="st4" x1="194.1" y1="139.2" x2="194.1" y2="125.6"/>
	<line class="st4" x1="201.4" y1="130" x2="201.4" y2="120.9"/>
</g>
<g id="hex-logvac">
	<polygon id="_x3E_bg_6_" class="st3" points="160.7,146.2 137.4,159.6 114.2,146.2 114.2,119.3 137.4,105.9 160.7,119.3 	"/>
	<polygon class="st4" points="129.3,141.3 129.3,127.6 139.5,122 139.4,135.6 	"/>
	<polygon class="st4" points="125.9,139.9 126,126.2 136,120.6 136,134.2 	"/>
	<polygon class="st4" points="122.6,138.5 122.7,124.8 132.7,119.2 132.7,132.8 	"/>
	<polygon class="st4" points="119.3,137.1 119.3,123.4 129.4,117.8 129.3,131.4 	"/>
	<polygon class="st4" points="146,148.3 146.2,134.6 156.2,129 156.1,142.7 	"/>
	<polygon class="st4" points="142.7,146.9 142.8,133.2 152.9,127.6 152.8,141.3 	"/>
	<polygon class="st4" points="139.4,145.5 139.4,131.8 149.5,126.2 149.4,139.9 	"/>
	<polygon class="st4" points="136,144.1 136,130.4 146.2,124.8 146.1,138.5 	"/>
</g>
<g id="hex-mist">
	<polygon id="_x3E_bg_7_" class="st3" points="89.1,146.2 65.8,159.6 42.6,146.2 42.6,119.3 65.8,105.9 89.1,119.3 	"/>
	<line class="st4" x1="83.7" y1="139.4" x2="65.6" y2="128"/>
	<line class="st4" x1="82.4" y1="143.4" x2="65.6" y2="132.8"/>
	<polyline class="st4" points="65.6,123.2 83.7,134.6 83.7,136.9 83.7,142.8 	"/>
	<line class="st4" x1="83.7" y1="134.6" x2="69.2" y2="125.4"/>
	<polyline class="st4" points="83.7,139.4 69.2,130.2 69.2,120.6 83.6,129.7 	"/>
	<polyline class="st4" points="65.5,143.2 83.6,131.7 83.6,122.2 65.5,133.6 	"/>
	<line class="st4" x1="65.7" y1="138.4" x2="73.9" y2="133.2"/>
	<line class="st4" x1="65.7" y1="133.6" x2="73.9" y2="128.4"/>
	<line class="st4" x1="73.9" y1="138" x2="65.7" y2="143.2"/>
	<line class="st4" x1="65.6" y1="128" x2="73.9" y2="133.2"/>
	<line class="st4" x1="65.6" y1="132.8" x2="73.9" y2="138"/>
	<line class="st4" x1="73.9" y1="128.3" x2="65.6" y2="123.2"/>
	<line class="st4" x1="83.6" y1="126.9" x2="65.5" y2="138.4"/>
	<line class="st4" x1="73.9" y1="133.3" x2="83.6" y2="127.1"/>
	<polyline class="st4" points="83.7,136.7 73.9,143 73.9,138.2 83.6,132 	"/>
	<line class="st4" x1="47.2" y1="139.4" x2="65.3" y2="128"/>
	<line class="st4" x1="48.6" y1="143.4" x2="65.3" y2="132.8"/>
	<polyline class="st4" points="65.3,123.2 47.2,134.6 47.2,136.9 47.2,142.8 	"/>
	<line class="st4" x1="47.2" y1="134.6" x2="61.8" y2="125.4"/>
	<polyline class="st4" points="47.2,139.4 61.8,130.2 61.8,120.6 47.3,129.7 	"/>
	<polyline class="st4" points="65.5,143.2 47.3,131.7 47.3,122.2 65.5,133.6 	"/>
	<line class="st4" x1="65.2" y1="138.4" x2="57" y2="133.2"/>
	<line class="st4" x1="65.2" y1="133.6" x2="57" y2="128.4"/>
	<line class="st4" x1="57" y1="138" x2="65.2" y2="143.2"/>
	<line class="st4" x1="65.3" y1="128" x2="57.1" y2="133.2"/>
	<line class="st4" x1="65.3" y1="132.8" x2="57.1" y2="138"/>
	<line class="st4" x1="57.1" y1="128.3" x2="65.3" y2="123.2"/>
	<line class="st4" x1="47.3" y1="126.9" x2="65.5" y2="138.4"/>
	<line class="st4" x1="57.1" y1="133.3" x2="47.3" y2="127.1"/>
	<polyline class="st4" points="47.2,136.7 57.1,143 57.1,138.2 47.3,132 	"/>
</g>
</svg>
