<?xml version="1.0" encoding="iso-8859-1"?>
<!-- Generator: Adobe Illustrator 20.0.0, SVG Export Plug-In . SVG Version: 6.00 Build 0)  -->
<svg version="1.1" id="svgs" xmlns="http://www.w3.org/2000/svg" xmlns:xlink="http://www.w3.org/1999/xlink" x="0px" y="0px"
	 viewBox="0 0 1020.7 205" style="enable-background:new 0 0 1020.7 205;" xml:space="preserve">
<style type="text/css">
	.st0{fill:none;stroke:#5F7C87;stroke-width:1.7432;stroke-linecap:round;stroke-linejoin:round;stroke-miterlimit:10;}
	.st1{fill:none;stroke:#678C9C;stroke-width:1.5;stroke-miterlimit:10;}
	.st2{fill:none;stroke:#729EB0;stroke-linecap:round;stroke-miterlimit:10;}
	.st3{fill:#5ECC81;}
	.st4{fill:none;stroke:#2B8258;stroke-width:1.7038;stroke-linecap:round;stroke-linejoin:round;stroke-miterlimit:10;}
</style>
<g id="mesh">
	<polygon class="st0" points="342,60.4 352,54.1 380.5,54.1 380.5,46.5 352,46.5 342,52.8 	"/>
	<polygon class="st0" points="391.3,64.2 381.3,57.9 351.4,57.9 351.4,50.3 381.3,50.3 391.3,56.6 	"/>
	<polygon class="st0" points="389.5,29.3 379.5,35.6 351.1,35.6 351.1,43.1 379.5,43.1 389.5,36.8 	"/>
	<polygon class="st0" points="340.3,25.5 350.2,31.8 380.1,31.8 380.1,39.3 350.2,39.3 340.3,33 	"/>
	<line class="st0" x1="357.2" y1="31.8" x2="357.2" y2="50.3"/>
	<line class="st0" x1="373" y1="35.6" x2="373" y2="57.9"/>
	<line class="st0" x1="360.3" y1="35.6" x2="360.3" y2="54.1"/>
	<line class="st0" x1="376.2" y1="39.3" x2="376.2" y2="57.9"/>
	<line class="st0" x1="366.8" y1="39.3" x2="366.8" y2="54.1"/>
	<line class="st0" x1="383.8" y1="36.6" x2="391.8" y2="31.6"/>
	<line class="st0" x1="339.5" y1="58.1" x2="346.9" y2="53.5"/>
	<line class="st0" x1="384.8" y1="56.6" x2="393.1" y2="61.8"/>
	<line class="st0" x1="338" y1="27.9" x2="345.9" y2="32.9"/>
</g>
<g id="logger">
	<polygon class="st0" points="169,61.6 161.4,43.1 170.7,29.5 178.4,48 	"/>
	<polygon class="st0" points="164,61.6 156.4,43.1 165.7,29.5 173.4,48 	"/>
	<polygon class="st0" points="159,61.6 151.4,43.1 160.7,29.5 168.4,48 	"/>
	<polygon class="st0" points="154.1,61.6 146.4,43.1 155.8,29.5 163.4,48 	"/>
	<polygon class="st0" points="194,61.6 186.4,43.1 195.7,29.5 203.4,48 	"/>
	<polygon class="st0" points="189.1,61.6 181.4,43.1 190.8,29.5 198.4,48 	"/>
	<polygon class="st0" points="184.1,61.6 176.4,43.1 185.8,29.5 193.4,48 	"/>
	<polygon class="st0" points="179.1,61.6 171.4,43.1 180.8,29.5 188.4,48 	"/>
</g>
<g id="monitor">
	<polygon class="st0" points="247.1,35.3 255.9,29.5 274.8,42.1 266,47.9 	"/>
	<polygon class="st0" points="247.1,41.1 255.9,35.3 274.8,47.9 266,53.7 	"/>
	<polygon class="st0" points="247.1,47 255.9,41.1 274.8,53.7 266,59.5 	"/>
	<polygon class="st0" points="284.9,35.3 276.1,29.5 257.2,42.1 266,47.9 	"/>
	<polygon class="st0" points="284.9,41.1 276.1,35.3 257.2,47.9 266,53.7 	"/>
	<polygon class="st0" points="284.9,47 276.1,41.1 257.2,53.7 266,59.5 	"/>
	<polygon class="st0" points="247.1,52.8 255.9,47 274.8,59.5 266,65.4 	"/>
	<polygon class="st0" points="284.9,52.8 276.1,47 257.2,59.5 266,65.4 	"/>
	<line class="st0" x1="276.2" y1="41.1" x2="276.2" y2="29.5"/>
	<line class="st0" x1="285.4" y1="52.8" x2="285.4" y2="35.5"/>
	<line class="st0" x1="246.9" y1="52.8" x2="246.9" y2="35.5"/>
	<line class="st0" x1="256" y1="41.1" x2="256" y2="29.5"/>
</g>
<g id="warehouse">
	
		<rect x="451.78" y="34.713" transform="matrix(0.7071 -0.7071 0.7071 0.7071 103.8426 339.1236)" class="st0" width="19" height="19"/>
	
		<rect x="455.57" y="38.511" transform="matrix(0.7071 -0.7071 0.7071 0.7071 103.8405 339.116)" class="st0" width="11.4" height="11.4"/>
	
		<rect x="462.099" y="36.405" transform="matrix(0.707 -0.7072 0.7072 0.707 106.4154 345.2675)" class="st0" width="15.6" height="15.6"/>
	
		<rect x="445.223" y="36.479" transform="matrix(0.7072 -0.707 0.707 0.7072 101.337 333.2548)" class="st0" width="15.6" height="15.6"/>
	
		<rect x="475.587" y="40.021" transform="matrix(0.707 -0.7072 0.7072 0.707 109.3011 352.2649)" class="st0" width="8.4" height="8.4"/>
	
		<rect x="438.47" y="40.013" transform="matrix(0.7071 -0.7071 0.7071 0.7071 98.3916 325.965)" class="st0" width="8.4" height="8.4"/>
</g>
<g id="pusher">
	<polyline class="st0" points="51.4,39.5 74.3,54 84.8,47.5 	"/>
	<polyline class="st0" points="84.8,53.6 74.3,60.1 51.4,45.6 51.4,33.4 74.3,47.9 84.8,41.4 	"/>
	<line class="st0" x1="46.9" y1="42.8" x2="69.9" y2="57.3"/>
	<polygon class="st0" points="46.9,36.7 69.9,51.2 69.9,63.4 46.9,48.9 	"/>
	<line class="st0" x1="84.8" y1="41.1" x2="107.7" y2="55.7"/>
	<polyline class="st0" points="84.8,47.2 107.7,61.8 107.7,49.6 84.8,35.1 84.9,41.3 74.5,34.7 51.5,49.2 51.5,61.4 74.5,46.9 
		84.9,53.5 	"/>
	<polyline class="st0" points="97.2,55.3 74.2,40.8 63.8,47.4 	"/>
	<polyline class="st0" points="63.8,41.3 74.2,34.7 97.2,49.2 97.2,61.4 74.2,46.9 63.8,53.5 	"/>
	<polyline class="st0" points="97.3,39.5 74.3,54 63.9,47.5 	"/>
	<polyline class="st0" points="63.9,53.6 74.3,60.1 97.3,45.6 97.3,33.4 74.3,47.9 63.9,41.4 	"/>
	<line class="st0" x1="101.8" y1="42.8" x2="78.8" y2="57.3"/>
	<polygon class="st0" points="101.8,36.7 78.8,51.2 78.8,63.4 101.8,48.9 	"/>
	<polyline class="st0" points="63.9,47.2 40.9,61.8 40.9,49.6 63.9,35.1 63.9,41.1 40.9,55.7 	"/>
	<polyline class="st0" points="51.5,55.3 74.5,40.8 84.9,47.4 	"/>
</g>
<g id="admin">
	
		<ellipse transform="matrix(0.9413 -0.3375 0.3375 0.9413 15.2298 186.3962)" class="st1" cx="543.684" cy="49.398" rx="2.4" ry="2.4"/>
	
		<ellipse transform="matrix(0.9412 -0.3377 0.3377 0.9412 18.02 186.9688)" class="st1" cx="546.372" cy="41.694" rx="2.4" ry="2.4"/>
	
		<ellipse transform="matrix(0.9413 -0.3376 0.3376 0.9413 17.0746 188.9868)" class="st1" cx="551.905" cy="45.401" rx="1.5" ry="1.5"/>
	<line class="st1" x1="544.5" y1="47.2" x2="545.7" y2="43.9"/>
	<line class="st1" x1="550.8" y1="44.4" x2="548.6" y2="43"/>
	
		<ellipse transform="matrix(0.8869 -0.4619 0.4619 0.8869 39.645 253.7357)" class="st1" cx="538.081" cy="45.892" rx="1.5" ry="1.5"/>
	<line class="st1" x1="539.3" y1="46.7" x2="541.7" y2="47.8"/>
</g>
<g id="back-arrow">
	<polyline class="st2" points="608,52.7 602.8,47.5 608,42.3 	"/>
	<line class="st2" x1="602.8" y1="47.5" x2="617" y2="47.5"/>
</g>
<g id="hex-hoarder">
	<polygon id="_x3E_bg_3_" class="st3" points="376.1,146.2 352.8,159.6 329.6,146.2 329.6,119.3 352.8,105.9 376.1,119.3 	"/>
	
		<rect x="344.299" y="124.296" transform="matrix(0.7071 -0.7071 0.7071 0.7071 9.3694 288.5116)" class="st4" width="17.3" height="17.3"/>
	
		<rect x="347.697" y="127.831" transform="matrix(0.7071 -0.7071 0.7071 0.7071 9.2944 288.4997)" class="st4" width="10.4" height="10.4"/>
	
		<rect x="353.701" y="125.773" transform="matrix(0.707 -0.7072 0.7072 0.707 11.7438 294.0919)" class="st4" width="14.2" height="14.2"/>
	
		<rect x="338.314" y="125.899" transform="matrix(0.7072 -0.707 0.707 0.7072 7.1036 283.1515)" class="st4" width="14.2" height="14.2"/>
	
		<rect x="365.987" y="129.07" transform="matrix(0.707 -0.7072 0.7072 0.707 14.3787 300.446)" class="st4" width="7.6" height="7.6"/>
	
		<rect x="332.16" y="129.085" transform="matrix(0.7071 -0.7071 0.7071 0.7071 4.4362 276.4804)" class="st4" width="7.6" height="7.6"/>
</g>
<g id="hex-portal">
	<polygon id="_x3E_bg_4_" class="st3" points="304.2,146.2 280.9,159.6 257.7,146.2 257.7,119.3 280.9,105.9 304.2,119.3 	"/>
	<polygon class="st4" points="263.7,144.7 269.1,141.4 293.9,141.4 293.9,134.8 269.1,134.8 263.7,138.1 	"/>
	<polygon class="st4" points="298.8,147.5 294.6,144.7 268.6,144.7 268.6,138.1 294.6,138.1 298.8,140.9 	"/>
	<polygon class="st4" points="299.7,120.8 293,125.3 268.3,125.3 268.3,131.9 293,131.9 299.7,127.3 	"/>
	<polygon class="st4" points="262.7,118.8 267.6,122 293.5,122 293.5,128.6 267.6,128.6 262.7,125.3 	"/>
	<line class="st4" x1="273.6" y1="122" x2="273.6" y2="138.1"/>
	<line class="st4" x1="287.4" y1="125.3" x2="287.4" y2="144.7"/>
	<line class="st4" x1="276.3" y1="125.3" x2="276.3" y2="141.4"/>
	<line class="st4" x1="290.1" y1="128.6" x2="290.1" y2="144.7"/>
	<line class="st4" x1="282" y1="128.6" x2="282" y2="141.4"/>
	<line class="st4" x1="294.7" y1="127.1" x2="301.7" y2="122.8"/>
	<line class="st4" x1="261.5" y1="142.7" x2="265.7" y2="140.1"/>
	<line class="st4" x1="295.9" y1="142.6" x2="299.2" y2="144.7"/>
	<line class="st4" x1="261.6" y1="121.4" x2="266" y2="124.4"/>
</g>
<g id="hex-pulse">
	<polygon id="_x3E_bg_5_" class="st3" points="232.6,146.2 209.3,159.6 186.1,146.2 186.1,119.3 209.3,105.9 232.6,119.3 	"/>
	<polygon class="st4" points="191.9,123.9 200,118.6 217.3,130.1 209.2,135.4 	"/>
	<polygon class="st4" points="191.9,129.2 200,123.9 217.3,135.4 209.2,140.8 	"/>
	<polygon class="st4" points="191.9,134.6 200,129.2 217.3,140.8 209.2,146.1 	"/>
	<polygon class="st4" points="226.5,123.9 218.5,118.6 201.2,130.1 209.2,135.4 	"/>
	<line class="st4" x1="226.5" y1="139.7" x2="226.5" y2="123.9"/>
	<polygon class="st4" points="226.5,129.2 218.5,123.9 201.2,135.4 209.2,140.8 	"/>
	<polygon class="st4" points="226.5,134.6 218.5,129.2 201.2,140.8 209.2,146.1 	"/>
	<polygon class="st4" points="191.9,139.9 200,134.6 217.3,146.1 209.2,151.5 	"/>
	<polygon class="st4" points="226.5,139.9 218.5,134.6 201.2,146.1 209.2,151.5 	"/>
	<line class="st4" x1="218.6" y1="129.2" x2="218.6" y2="118.6"/>
	<line class="st4" x1="191.7" y1="139.9" x2="191.7" y2="124.1"/>
	<line class="st4" x1="200.1" y1="129.2" x2="200.1" y2="118.6"/>
</g>
<g id="hex-logvac">
	<polygon id="_x3E_bg_6_" class="st3" points="160.7,146.2 137.4,159.6 114.2,146.2 114.2,119.3 137.4,105.9 160.7,119.3 	"/>
	<polygon class="st4" points="128.1,142.4 128.2,126.9 139.7,120.5 139.6,136 	"/>
	<polygon class="st4" points="124.3,140.8 124.4,125.3 135.8,118.9 135.8,134.4 	"/>
	<polygon class="st4" points="120.5,139.2 120.6,123.7 132,117.3 132,132.8 	"/>
	<polygon class="st4" points="116.8,137.6 116.8,122.1 128.3,115.7 128.2,131.2 	"/>
	<polygon class="st4" points="147.1,150.4 147.3,134.8 158.7,128.5 158.6,144 	"/>
	<polygon class="st4" points="143.4,148.8 143.5,133.2 155,126.9 154.8,142.4 	"/>
	<polygon class="st4" points="139.6,147.2 139.6,131.6 151.1,125.3 151,140.8 	"/>
	<polygon class="st4" points="135.8,145.6 135.8,130 147.3,123.7 147.2,139.2 	"/>
</g>
<g id="hex-mist">
	<polygon id="_x3E_bg_7_" class="st3" points="89.1,146.2 65.8,159.6 42.6,146.2 42.6,119.3 65.8,105.9 89.1,119.3 	"/>
	<path class="st4" d="M83.2,133.4"/>
	<line class="st4" x1="86.4" y1="141.5" x2="65.6" y2="128.4"/>
	<line class="st4" x1="84.9" y1="146.1" x2="65.6" y2="133.9"/>
	<polyline class="st4" points="65.6,122.9 86.4,136 86.4,138.6 86.4,145.4 	"/>
	<line class="st4" x1="86.4" y1="136" x2="69.7" y2="125.4"/>
	<polyline class="st4" points="86.4,141.5 69.7,130.9 69.7,119.9 86.3,130.4 	"/>
	<polyline class="st4" points="65.5,145.9 86.3,132.7 86.3,121.7 65.5,134.8 	"/>
	<line class="st4" x1="65.7" y1="140.4" x2="75.2" y2="134.4"/>
	<line class="st4" x1="65.7" y1="134.8" x2="75.2" y2="128.9"/>
	<line class="st4" x1="75.2" y1="139.9" x2="65.7" y2="145.9"/>
	<line class="st4" x1="65.6" y1="128.4" x2="75.1" y2="134.4"/>
	<line class="st4" x1="65.6" y1="133.9" x2="75.1" y2="139.9"/>
	<line class="st4" x1="75.1" y1="128.8" x2="65.6" y2="122.9"/>
	<line class="st4" x1="86.3" y1="127.2" x2="65.5" y2="140.4"/>
	<line class="st4" x1="75.1" y1="134.5" x2="86.3" y2="127.4"/>
	<polyline class="st4" points="86.4,138.4 75.1,145.6 75.1,140.1 86.3,133 	"/>
	<path class="st4" d="M86.4,138.6"/>
	<path class="st4" d="M47.7,133.4"/>
	<line class="st4" x1="44.5" y1="141.5" x2="65.3" y2="128.4"/>
	<line class="st4" x1="46.1" y1="146.1" x2="65.3" y2="133.9"/>
	<polyline class="st4" points="65.3,122.9 44.5,136 44.5,138.6 44.5,145.4 	"/>
	<line class="st4" x1="44.5" y1="136" x2="61.3" y2="125.4"/>
	<polyline class="st4" points="44.5,141.5 61.3,130.9 61.3,119.9 44.6,130.4 	"/>
	<polyline class="st4" points="65.5,145.9 44.6,132.7 44.6,121.7 65.5,134.8 	"/>
	<line class="st4" x1="65.2" y1="140.4" x2="55.8" y2="134.4"/>
	<line class="st4" x1="65.2" y1="134.8" x2="55.8" y2="128.9"/>
	<line class="st4" x1="55.8" y1="139.9" x2="65.2" y2="145.9"/>
	<line class="st4" x1="65.3" y1="128.4" x2="55.9" y2="134.4"/>
	<line class="st4" x1="65.3" y1="133.9" x2="55.9" y2="139.9"/>
	<line class="st4" x1="55.9" y1="128.8" x2="65.3" y2="122.9"/>
	<line class="st4" x1="44.6" y1="127.2" x2="65.5" y2="140.4"/>
	<line class="st4" x1="55.9" y1="134.5" x2="44.6" y2="127.4"/>
	<polyline class="st4" points="44.5,138.4 55.9,145.6 55.9,140.1 44.6,133 	"/>
	<path class="st4" d="M44.5,138.6"/>
	<path class="st4" d="M44.5,138.6"/>
</g>
</svg>
